<?xml version="1.0" encoding="utf-8" standalone="no"?>
<!DOCTYPE svg PUBLIC "-//W3C//DTD SVG 1.1//EN"
  "http://www.w3.org/Graphics/SVG/1.1/DTD/svg11.dtd">
<svg xmlns:xlink="http://www.w3.org/1999/xlink" width="216pt" height="216pt" viewBox="0 0 216 216" xmlns="http://www.w3.org/2000/svg" version="1.1">
 <metadata>
  <rdf:RDF xmlns:dc="http://purl.org/dc/elements/1.1/" xmlns:cc="http://creativecommons.org/ns#" xmlns:rdf="http://www.w3.org/1999/02/22-rdf-syntax-ns#">
   <cc:Work>
    <dc:type rdf:resource="http://purl.org/dc/dcmitype/StillImage"/>
    <dc:date>2024-11-18T21:32:18.658173</dc:date>
    <dc:format>image/svg+xml</dc:format>
    <dc:creator>
     <cc:Agent>
      <dc:title>Matplotlib v3.8.1, https://matplotlib.org/</dc:title>
     </cc:Agent>
    </dc:creator>
   </cc:Work>
  </rdf:RDF>
 </metadata>
 <defs>
  <style type="text/css">*{stroke-linejoin: round; stroke-linecap: butt}</style>
 </defs>
 <g id="figure_1">
  <g id="patch_1">
   <path d="M 0 216 
L 216 216 
L 216 0 
L 0 0 
z
" style="fill: #ffffff"/>
  </g>
  <g id="axes_1">
   <g id="patch_2">
    <path d="M 27 192.24 
L 194.4 192.24 
L 194.4 25.92 
L 27 25.92 
z
" style="fill: #ffffff"/>
   </g>
   <g id="PathCollection_1">
    <defs>
     <path id="m17b7e78925" d="M 0 3 
C 0.795609 3 1.55874 2.683901 2.12132 2.12132 
C 2.683901 1.55874 3 0.795609 3 0 
C 3 -0.795609 2.683901 -1.55874 2.12132 -2.12132 
C 1.55874 -2.683901 0.795609 -3 0 -3 
C -0.795609 -3 -1.55874 -2.683901 -2.12132 -2.12132 
C -2.683901 -1.55874 -3 -0.795609 -3 0 
C -3 0.795609 -2.683901 1.55874 -2.12132 2.12132 
C -1.55874 2.683901 -0.795609 3 0 3 
z
" style="stroke: #dcdcdc"/>
    </defs>
    <g clip-path="url(#p61f787ba30)">
     <use xlink:href="#m17b7e78925" x="53.237271" y="137.839437" style="fill: #dcdcdc; stroke: #dcdcdc"/>
     <use xlink:href="#m17b7e78925" x="35.397393" y="80.93572" style="fill: #dcdcdc; stroke: #dcdcdc"/>
     <use xlink:href="#m17b7e78925" x="62.861895" y="65.282174" style="fill: #dcdcdc; stroke: #dcdcdc"/>
     <use xlink:href="#m17b7e78925" x="37.672949" y="101.400163" style="fill: #dcdcdc; stroke: #dcdcdc"/>
     <use xlink:href="#m17b7e78925" x="112.766564" y="122.667026" style="fill: #dcdcdc; stroke: #dcdcdc"/>
     <use xlink:href="#m17b7e78925" x="43.336107" y="95.44315" style="fill: #dcdcdc; stroke: #dcdcdc"/>
     <use xlink:href="#m17b7e78925" x="83.153772" y="80.414087" style="fill: #dcdcdc; stroke: #dcdcdc"/>
     <use xlink:href="#m17b7e78925" x="48.036794" y="62.406306" style="fill: #dcdcdc; stroke: #dcdcdc"/>
     <use xlink:href="#m17b7e78925" x="58.402235" y="119.618585" style="fill: #dcdcdc; stroke: #dcdcdc"/>
     <use xlink:href="#m17b7e78925" x="34.609091" y="81.434514" style="fill: #dcdcdc; stroke: #dcdcdc"/>
     <use xlink:href="#m17b7e78925" x="90.811856" y="134.772028" style="fill: #dcdcdc; stroke: #dcdcdc"/>
     <use xlink:href="#m17b7e78925" x="123.798057" y="149.567247" style="fill: #dcdcdc; stroke: #dcdcdc"/>
     <use xlink:href="#m17b7e78925" x="88.368095" y="44.273026" style="fill: #dcdcdc; stroke: #dcdcdc"/>
     <use xlink:href="#m17b7e78925" x="38.964573" y="33.48" style="fill: #dcdcdc; stroke: #dcdcdc"/>
     <use xlink:href="#m17b7e78925" x="91.049364" y="129.212624" style="fill: #dcdcdc; stroke: #dcdcdc"/>
     <use xlink:href="#m17b7e78925" x="142.725333" y="129.350778" style="fill: #dcdcdc; stroke: #dcdcdc"/>
     <use xlink:href="#m17b7e78925" x="109.640963" y="184.68" style="fill: #dcdcdc; stroke: #dcdcdc"/>
     <use xlink:href="#m17b7e78925" x="87.269739" y="141.647414" style="fill: #dcdcdc; stroke: #dcdcdc"/>
     <use xlink:href="#m17b7e78925" x="98.456872" y="136.710706" style="fill: #dcdcdc; stroke: #dcdcdc"/>
     <use xlink:href="#m17b7e78925" x="108.395472" y="164.889606" style="fill: #dcdcdc; stroke: #dcdcdc"/>
     <use xlink:href="#m17b7e78925" x="82.606943" y="138.331369" style="fill: #dcdcdc; stroke: #dcdcdc"/>
     <use xlink:href="#m17b7e78925" x="69.258625" y="133.642106" style="fill: #dcdcdc; stroke: #dcdcdc"/>
     <use xlink:href="#m17b7e78925" x="186.790909" y="160.332911" style="fill: #dcdcdc; stroke: #dcdcdc"/>
     <use xlink:href="#m17b7e78925" x="73.938516" y="77.270149" style="fill: #dcdcdc; stroke: #dcdcdc"/>
    </g>
   </g>
   <g id="PathCollection_2">
    <defs>
     <path id="m49b4cb639f" d="M 0 3 
C 0.795609 3 1.55874 2.683901 2.12132 2.12132 
C 2.683901 1.55874 3 0.795609 3 0 
C 3 -0.795609 2.683901 -1.55874 2.12132 -2.12132 
C 1.55874 -2.683901 0.795609 -3 0 -3 
C -0.795609 -3 -1.55874 -2.683901 -2.12132 -2.12132 
C -2.683901 -1.55874 -3 -0.795609 -3 0 
C -3 0.795609 -2.683901 1.55874 -2.12132 2.12132 
C -1.55874 2.683901 -0.795609 3 0 3 
z
" style="stroke: #029e73"/>
    </defs>
    <g clip-path="url(#p61f787ba30)">
     <use xlink:href="#m49b4cb639f" x="43.336107" y="95.44315" style="fill: #029e73; stroke: #029e73"/>
    </g>
   </g>
   <g id="PathCollection_3">
    <g clip-path="url(#p61f787ba30)">
     <use xlink:href="#m49b4cb639f" x="112.766564" y="122.667026" style="fill: #029e73; stroke: #029e73"/>
    </g>
   </g>
   <g id="PathCollection_4">
    <g clip-path="url(#p61f787ba30)">
     <use xlink:href="#m49b4cb639f" x="43.336107" y="95.44315" style="fill: #029e73; stroke: #029e73"/>
    </g>
   </g>
   <g id="PathCollection_5">
    <g clip-path="url(#p61f787ba30)">
     <use xlink:href="#m49b4cb639f" x="112.766564" y="122.667026" style="fill: #029e73; stroke: #029e73"/>
    </g>
   </g>
   <g id="PathCollection_6">
    <g clip-path="url(#p61f787ba30)">
     <use xlink:href="#m49b4cb639f" x="69.258625" y="133.642106" style="fill: #029e73; stroke: #029e73"/>
    </g>
   </g>
   <g id="PathCollection_7">
    <g clip-path="url(#p61f787ba30)">
     <use xlink:href="#m49b4cb639f" x="186.790909" y="160.332911" style="fill: #029e73; stroke: #029e73"/>
    </g>
   </g>
   <g id="PathCollection_8">
    <g clip-path="url(#p61f787ba30)">
     <use xlink:href="#m49b4cb639f" x="37.672949" y="101.400163" style="fill: #029e73; stroke: #029e73"/>
    </g>
   </g>
   <g id="PathCollection_9">
    <g clip-path="url(#p61f787ba30)">
     <use xlink:href="#m49b4cb639f" x="82.606943" y="138.331369" style="fill: #029e73; stroke: #029e73"/>
    </g>
   </g>
   <g id="PathCollection_10">
    <g clip-path="url(#p61f787ba30)">
     <use xlink:href="#m49b4cb639f" x="53.237271" y="137.839437" style="fill: #029e73; stroke: #029e73"/>
    </g>
   </g>
   <g id="PathCollection_11">
    <g clip-path="url(#p61f787ba30)">
     <use xlink:href="#m49b4cb639f" x="34.609091" y="81.434514" style="fill: #029e73; stroke: #029e73"/>
    </g>
   </g>
   <g id="PathCollection_12">
    <g clip-path="url(#p61f787ba30)">
     <use xlink:href="#m49b4cb639f" x="43.336107" y="95.44315" style="fill: #029e73; stroke: #029e73"/>
    </g>
   </g>
   <g id="PathCollection_13">
    <g clip-path="url(#p61f787ba30)">
     <use xlink:href="#m49b4cb639f" x="62.861895" y="65.282174" style="fill: #029e73; stroke: #029e73"/>
    </g>
   </g>
   <g id="PathCollection_14">
    <g clip-path="url(#p61f787ba30)">
     <use xlink:href="#m49b4cb639f" x="186.790909" y="160.332911" style="fill: #029e73; stroke: #029e73"/>
    </g>
   </g>
   <g id="PathCollection_15">
    <g clip-path="url(#p61f787ba30)">
     <use xlink:href="#m49b4cb639f" x="142.725333" y="129.350778" style="fill: #029e73; stroke: #029e73"/>
    </g>
   </g>
   <g id="PathCollection_16">
    <g clip-path="url(#p61f787ba30)">
     <use xlink:href="#m49b4cb639f" x="34.609091" y="81.434514" style="fill: #029e73; stroke: #029e73"/>
    </g>
   </g>
   <g id="PathCollection_17">
    <g clip-path="url(#p61f787ba30)">
     <use xlink:href="#m49b4cb639f" x="37.672949" y="101.400163" style="fill: #029e73; stroke: #029e73"/>
    </g>
   </g>
   <g id="PathCollection_18">
    <g clip-path="url(#p61f787ba30)">
     <use xlink:href="#m49b4cb639f" x="83.153772" y="80.414087" style="fill: #029e73; stroke: #029e73"/>
    </g>
   </g>
   <g id="PathCollection_19">
    <g clip-path="url(#p61f787ba30)">
     <use xlink:href="#m49b4cb639f" x="91.049364" y="129.212624" style="fill: #029e73; stroke: #029e73"/>
    </g>
   </g>
   <g id="PathCollection_20">
    <g clip-path="url(#p61f787ba30)">
     <use xlink:href="#m49b4cb639f" x="35.397393" y="80.93572" style="fill: #029e73; stroke: #029e73"/>
    </g>
   </g>
   <g id="PathCollection_21">
    <g clip-path="url(#p61f787ba30)">
     <use xlink:href="#m49b4cb639f" x="123.798057" y="149.567247" style="fill: #029e73; stroke: #029e73"/>
    </g>
   </g>
   <g id="PathCollection_22">
    <g clip-path="url(#p61f787ba30)">
     <use xlink:href="#m49b4cb639f" x="48.036794" y="62.406306" style="fill: #029e73; stroke: #029e73"/>
    </g>
   </g>
   <g id="PathCollection_23">
    <g clip-path="url(#p61f787ba30)">
     <use xlink:href="#m49b4cb639f" x="142.725333" y="129.350778" style="fill: #029e73; stroke: #029e73"/>
    </g>
   </g>
   <g id="matplotlib.axis_1">
    <g id="text_1">
     <!-- Latent 1 -->
     <g transform="translate(69.128125 211.436875) scale(0.2 -0.2)">
      <defs>
       <path id="DejaVuSans-4c" d="M 628 4666 
L 1259 4666 
L 1259 531 
L 3531 531 
L 3531 0 
L 628 0 
L 628 4666 
z
" transform="scale(0.015625)"/>
       <path id="DejaVuSans-61" d="M 2194 1759 
Q 1497 1759 1228 1600 
Q 959 1441 959 1056 
Q 959 750 1161 570 
Q 1363 391 1709 391 
Q 2188 391 2477 730 
Q 2766 1069 2766 1631 
L 2766 1759 
L 2194 1759 
z
M 3341 1997 
L 3341 0 
L 2766 0 
L 2766 531 
Q 2569 213 2275 61 
Q 1981 -91 1556 -91 
Q 1019 -91 701 211 
Q 384 513 384 1019 
Q 384 1609 779 1909 
Q 1175 2209 1959 2209 
L 2766 2209 
L 2766 2266 
Q 2766 2663 2505 2880 
Q 2244 3097 1772 3097 
Q 1472 3097 1187 3025 
Q 903 2953 641 2809 
L 641 3341 
Q 956 3463 1253 3523 
Q 1550 3584 1831 3584 
Q 2591 3584 2966 3190 
Q 3341 2797 3341 1997 
z
" transform="scale(0.015625)"/>
       <path id="DejaVuSans-74" d="M 1172 4494 
L 1172 3500 
L 2356 3500 
L 2356 3053 
L 1172 3053 
L 1172 1153 
Q 1172 725 1289 603 
Q 1406 481 1766 481 
L 2356 481 
L 2356 0 
L 1766 0 
Q 1100 0 847 248 
Q 594 497 594 1153 
L 594 3053 
L 172 3053 
L 172 3500 
L 594 3500 
L 594 4494 
L 1172 4494 
z
" transform="scale(0.015625)"/>
       <path id="DejaVuSans-65" d="M 3597 1894 
L 3597 1613 
L 953 1613 
Q 991 1019 1311 708 
Q 1631 397 2203 397 
Q 2534 397 2845 478 
Q 3156 559 3463 722 
L 3463 178 
Q 3153 47 2828 -22 
Q 2503 -91 2169 -91 
Q 1331 -91 842 396 
Q 353 884 353 1716 
Q 353 2575 817 3079 
Q 1281 3584 2069 3584 
Q 2775 3584 3186 3129 
Q 3597 2675 3597 1894 
z
M 3022 2063 
Q 3016 2534 2758 2815 
Q 2500 3097 2075 3097 
Q 1594 3097 1305 2825 
Q 1016 2553 972 2059 
L 3022 2063 
z
" transform="scale(0.015625)"/>
       <path id="DejaVuSans-6e" d="M 3513 2113 
L 3513 0 
L 2938 0 
L 2938 2094 
Q 2938 2591 2744 2837 
Q 2550 3084 2163 3084 
Q 1697 3084 1428 2787 
Q 1159 2491 1159 1978 
L 1159 0 
L 581 0 
L 581 3500 
L 1159 3500 
L 1159 2956 
Q 1366 3272 1645 3428 
Q 1925 3584 2291 3584 
Q 2894 3584 3203 3211 
Q 3513 2838 3513 2113 
z
" transform="scale(0.015625)"/>
       <path id="DejaVuSans-20" transform="scale(0.015625)"/>
       <path id="DejaVuSans-31" d="M 794 531 
L 1825 531 
L 1825 4091 
L 703 3866 
L 703 4441 
L 1819 4666 
L 2450 4666 
L 2450 531 
L 3481 531 
L 3481 0 
L 794 0 
L 794 531 
z
" transform="scale(0.015625)"/>
      </defs>
      <use xlink:href="#DejaVuSans-4c"/>
      <use xlink:href="#DejaVuSans-61" x="55.712891"/>
      <use xlink:href="#DejaVuSans-74" x="116.992188"/>
      <use xlink:href="#DejaVuSans-65" x="156.201172"/>
      <use xlink:href="#DejaVuSans-6e" x="217.724609"/>
      <use xlink:href="#DejaVuSans-74" x="281.103516"/>
      <use xlink:href="#DejaVuSans-20" x="320.3125"/>
      <use xlink:href="#DejaVuSans-31" x="352.099609"/>
     </g>
    </g>
   </g>
   <g id="matplotlib.axis_2">
    <g id="text_2">
     <!-- Latent 2 -->
     <g transform="translate(18.840625 150.651875) rotate(-90) scale(0.2 -0.2)">
      <defs>
       <path id="DejaVuSans-32" d="M 1228 531 
L 3431 531 
L 3431 0 
L 469 0 
L 469 531 
Q 828 903 1448 1529 
Q 2069 2156 2228 2338 
Q 2531 2678 2651 2914 
Q 2772 3150 2772 3378 
Q 2772 3750 2511 3984 
Q 2250 4219 1831 4219 
Q 1534 4219 1204 4116 
Q 875 4013 500 3803 
L 500 4441 
Q 881 4594 1212 4672 
Q 1544 4750 1819 4750 
Q 2544 4750 2975 4387 
Q 3406 4025 3406 3419 
Q 3406 3131 3298 2873 
Q 3191 2616 2906 2266 
Q 2828 2175 2409 1742 
Q 1991 1309 1228 531 
z
" transform="scale(0.015625)"/>
      </defs>
      <use xlink:href="#DejaVuSans-4c"/>
      <use xlink:href="#DejaVuSans-61" x="55.712891"/>
      <use xlink:href="#DejaVuSans-74" x="116.992188"/>
      <use xlink:href="#DejaVuSans-65" x="156.201172"/>
      <use xlink:href="#DejaVuSans-6e" x="217.724609"/>
      <use xlink:href="#DejaVuSans-74" x="281.103516"/>
      <use xlink:href="#DejaVuSans-20" x="320.3125"/>
      <use xlink:href="#DejaVuSans-32" x="352.099609"/>
     </g>
    </g>
   </g>
   <g id="line2d_1">
    <path d="M 43.336107 95.44315 
L 44.032902 95.722338 
L 44.729707 96.001514 
L 45.426527 96.280678 
L 46.123368 96.559816 
L 46.820229 96.838945 
L 47.517117 97.118048 
L 48.214024 97.397128 
L 48.910961 97.676182 
L 49.607933 97.955213 
L 50.30493 98.234208 
L 51.001967 98.513169 
L 51.699044 98.792101 
L 52.396155 99.070992 
L 53.093313 99.349842 
L 53.790511 99.628658 
L 54.487761 99.907424 
L 55.185062 100.186143 
L 55.882411 100.464819 
L 56.579823 100.74344 
L 57.277285 101.022011 
L 57.974808 101.300524 
L 58.672396 101.578982 
L 59.370043 101.857379 
L 60.067762 102.135718 
L 60.765545 102.413987 
L 61.463414 102.692183 
L 62.161362 102.970307 
L 62.859396 103.248346 
L 63.557518 103.526313 
L 64.255732 103.804192 
L 64.954031 104.081985 
L 65.652424 104.359699 
L 66.350921 104.637314 
L 67.049503 104.91485 
L 67.748189 105.192291 
L 68.44698 105.469638 
L 69.145865 105.74689 
L 69.844863 106.024043 
L 70.54396 106.301106 
L 71.243172 106.578061 
L 71.942492 106.854915 
L 72.641927 107.131666 
L 73.341473 107.408311 
L 74.041134 107.684853 
L 74.740919 107.961277 
L 75.440819 108.237592 
L 76.140844 108.513798 
L 76.840993 108.78989 
L 77.541267 109.065863 
L 78.241672 109.341708 
L 78.942237 109.617416 
L 79.642962 109.892973 
L 80.343854 110.168373 
L 81.044918 110.443617 
L 81.746151 110.7187 
L 82.447554 110.993615 
L 83.149141 111.26837 
L 83.850911 111.542953 
L 84.552863 111.817368 
L 85.255001 112.091606 
L 85.95733 112.365669 
L 86.65985 112.639552 
L 87.362569 112.913249 
L 88.065485 113.186766 
L 88.768606 113.460091 
L 89.471933 113.733224 
L 90.175467 114.006166 
L 90.879207 114.278904 
L 91.583165 114.55145 
L 92.287342 114.823792 
L 92.99174 115.095931 
L 93.69636 115.367855 
L 94.4012 115.63957 
L 95.106277 115.911076 
L 95.811545 116.182395 
L 96.516907 116.453633 
L 97.22236 116.724784 
L 97.927905 116.995842 
L 98.633539 117.266818 
L 99.339269 117.537702 
L 100.04509 117.808504 
L 100.751008 118.079207 
L 101.457022 118.349829 
L 102.163128 118.620352 
L 102.869326 118.890794 
L 103.575627 119.161143 
L 104.282023 119.431393 
L 104.988517 119.701555 
L 105.695109 119.971619 
L 106.401801 120.24159 
L 107.108586 120.511468 
L 107.815478 120.781253 
L 108.522468 121.050939 
L 109.229563 121.320537 
L 109.936757 121.590037 
L 110.644055 121.859433 
L 111.351451 122.128729 
L 112.058956 122.397927 
L 112.766564 122.667026 
" clip-path="url(#p61f787ba30)" style="fill: none; stroke: #029e73; stroke-width: 1.5; stroke-linecap: square"/>
   </g>
   <g id="line2d_2">
    <path d="M 43.336107 95.44315 
L 44.032902 95.722338 
L 44.729707 96.001514 
L 45.426527 96.280678 
L 46.123368 96.559816 
L 46.820229 96.838945 
L 47.517117 97.118048 
L 48.214024 97.397128 
L 48.910961 97.676182 
L 49.607933 97.955213 
L 50.30493 98.234208 
L 51.001967 98.513169 
L 51.699044 98.792101 
L 52.396155 99.070992 
L 53.093313 99.349842 
L 53.790511 99.628658 
L 54.487761 99.907424 
L 55.185062 100.186143 
L 55.882411 100.464819 
L 56.579823 100.74344 
L 57.277285 101.022011 
L 57.974808 101.300524 
L 58.672396 101.578982 
L 59.370043 101.857379 
L 60.067762 102.135718 
L 60.765545 102.413987 
L 61.463414 102.692183 
L 62.161362 102.970307 
L 62.859396 103.248346 
L 63.557518 103.526313 
L 64.255732 103.804192 
L 64.954031 104.081985 
L 65.652424 104.359699 
L 66.350921 104.637314 
L 67.049503 104.91485 
L 67.748189 105.192291 
L 68.44698 105.469638 
L 69.145865 105.74689 
L 69.844863 106.024043 
L 70.54396 106.301106 
L 71.243172 106.578061 
L 71.942492 106.854915 
L 72.641927 107.131666 
L 73.341473 107.408311 
L 74.041134 107.684853 
L 74.740919 107.961277 
L 75.440819 108.237592 
L 76.140844 108.513798 
L 76.840993 108.78989 
L 77.541267 109.065863 
L 78.241672 109.341708 
L 78.942237 109.617416 
L 79.642962 109.892973 
L 80.343854 110.168373 
L 81.044918 110.443617 
L 81.746151 110.7187 
L 82.447554 110.993615 
L 83.149141 111.26837 
L 83.850911 111.542953 
L 84.552863 111.817368 
L 85.255001 112.091606 
L 85.95733 112.365669 
L 86.65985 112.639552 
L 87.362569 112.913249 
L 88.065485 113.186766 
L 88.768606 113.460091 
L 89.471933 113.733224 
L 90.175467 114.006166 
L 90.879207 114.278904 
L 91.583165 114.55145 
L 92.287342 114.823792 
L 92.99174 115.095931 
L 93.69636 115.367855 
L 94.4012 115.63957 
L 95.106277 115.911076 
L 95.811545 116.182395 
L 96.516907 116.453633 
L 97.22236 116.724784 
L 97.927905 116.995842 
L 98.633539 117.266818 
L 99.339269 117.537702 
L 100.04509 117.808504 
L 100.751008 118.079207 
L 101.457022 118.349829 
L 102.163128 118.620352 
L 102.869326 118.890794 
L 103.575627 119.161143 
L 104.282023 119.431393 
L 104.988517 119.701555 
L 105.695109 119.971619 
L 106.401801 120.24159 
L 107.108586 120.511468 
L 107.815478 120.781253 
L 108.522468 121.050939 
L 109.229563 121.320537 
L 109.936757 121.590037 
L 110.644055 121.859433 
L 111.351451 122.128729 
L 112.058956 122.397927 
L 112.766564 122.667026 
" clip-path="url(#p61f787ba30)" style="fill: none; stroke: #029e73; stroke-width: 1.5; stroke-linecap: square"/>
   </g>
   <g id="line2d_3">
    <path d="M 69.258625 133.642106 
L 70.441272 133.915972 
L 71.623932 134.189826 
L 72.806609 134.463674 
L 73.989303 134.737493 
L 75.172019 135.011295 
L 76.354757 135.285073 
L 77.537521 135.558834 
L 78.720315 135.83256 
L 79.903139 136.106263 
L 81.085993 136.379931 
L 82.268884 136.65357 
L 83.451815 136.927174 
L 84.634785 137.200737 
L 85.817796 137.47426 
L 87.000854 137.747747 
L 88.18396 138.021177 
L 89.367116 138.294572 
L 90.550324 138.567908 
L 91.733588 138.841198 
L 92.916908 139.11443 
L 94.100291 139.38761 
L 95.283735 139.660732 
L 96.467242 139.933789 
L 97.65082 140.206789 
L 98.834465 140.479718 
L 100.01819 140.752573 
L 101.201999 141.025357 
L 102.385893 141.298048 
L 103.569878 141.570658 
L 104.75395 141.843193 
L 105.938112 142.115634 
L 107.12237 142.388 
L 108.306725 142.660261 
L 109.491172 142.932435 
L 110.675724 143.204522 
L 111.860377 143.476504 
L 113.045128 143.748399 
L 114.229993 144.020189 
L 115.41496 144.291887 
L 116.600033 144.563468 
L 117.78522 144.834956 
L 118.970525 145.106333 
L 120.155939 145.377601 
L 121.341473 145.648769 
L 122.527128 145.919815 
L 123.712898 146.190757 
L 124.898792 146.461576 
L 126.084816 146.732285 
L 127.27096 147.002861 
L 128.457241 147.273332 
L 129.643677 147.543645 
L 130.830277 147.813802 
L 132.017051 148.083802 
L 133.203986 148.353657 
L 134.391103 148.623331 
L 135.578379 148.892849 
L 136.765846 149.162203 
L 137.953493 149.431378 
L 139.141327 149.700389 
L 140.329349 149.969221 
L 141.517569 150.237872 
L 142.705963 150.506332 
L 143.894568 150.774622 
L 145.08337 151.042716 
L 146.272378 151.310623 
L 147.46159 151.578332 
L 148.651012 151.84585 
L 149.840639 152.113164 
L 151.030502 152.380281 
L 152.220562 152.647194 
L 153.410858 152.913892 
L 154.601365 153.180387 
L 155.792108 153.446666 
L 156.983073 153.712737 
L 158.174249 153.978615 
L 159.365506 154.244412 
L 160.556861 154.510122 
L 161.748298 154.775745 
L 162.939833 155.04128 
L 164.131455 155.306728 
L 165.323183 155.572084 
L 166.515003 155.837357 
L 167.706917 156.102544 
L 168.898923 156.367638 
L 170.091022 156.632639 
L 171.283221 156.897552 
L 172.475518 157.162378 
L 173.667909 157.427106 
L 174.860417 157.691746 
L 176.053006 157.956287 
L 177.245694 158.220736 
L 178.438487 158.485091 
L 179.631386 158.749359 
L 180.824377 159.013529 
L 182.01748 159.277594 
L 183.210683 159.541577 
L 184.403984 159.80545 
L 185.597397 160.06923 
L 186.790909 160.332911 
" clip-path="url(#p61f787ba30)" style="fill: none; stroke: #029e73; stroke-width: 1.5; stroke-linecap: square"/>
   </g>
   <g id="line2d_4">
    <path d="M 37.672949 101.400163 
L 38.122351 101.776051 
L 38.571768 102.151814 
L 39.021198 102.527461 
L 39.470653 102.902986 
L 39.920123 103.278394 
L 40.369617 103.653689 
L 40.819137 104.028874 
L 41.268685 104.403951 
L 41.718266 104.778914 
L 42.167873 105.153782 
L 42.617519 105.528545 
L 43.067203 105.90321 
L 43.51693 106.277775 
L 43.966695 106.652248 
L 44.416502 107.02663 
L 44.866363 107.400922 
L 45.31627 107.775124 
L 45.766229 108.149245 
L 46.216241 108.523285 
L 46.666313 108.897246 
L 47.116443 109.271122 
L 47.566634 109.644929 
L 48.016891 110.018663 
L 48.467214 110.392328 
L 48.917601 110.765926 
L 49.368074 111.139509 
L 49.818626 111.513092 
L 50.269261 111.886675 
L 50.719986 112.260255 
L 51.170794 112.633838 
L 51.621695 113.007415 
L 52.07269 113.380987 
L 52.523777 113.754552 
L 52.97496 114.128118 
L 53.426243 114.501672 
L 53.877628 114.87522 
L 54.329102 115.248751 
L 54.780691 115.622276 
L 55.232386 115.995789 
L 55.684186 116.369291 
L 56.136094 116.742775 
L 56.588114 117.116248 
L 57.040251 117.489703 
L 57.492497 117.863135 
L 57.944867 118.236556 
L 58.397352 118.609953 
L 58.849957 118.983332 
L 59.302687 119.356683 
L 59.755543 119.730016 
L 60.208523 120.103326 
L 60.661665 120.476618 
L 61.114967 120.849899 
L 61.568432 121.223168 
L 62.022065 121.59642 
L 62.475866 121.969654 
L 62.929838 122.342877 
L 63.383987 122.716077 
L 63.838315 123.089264 
L 64.292826 123.462429 
L 64.747523 123.835576 
L 65.202405 124.208706 
L 65.657477 124.581812 
L 66.112743 124.954901 
L 66.568207 125.327961 
L 67.023869 125.701003 
L 67.479735 126.074023 
L 67.935807 126.447019 
L 68.392084 126.819986 
L 68.848574 127.192929 
L 69.30528 127.565855 
L 69.762204 127.938753 
L 70.219347 128.311615 
L 70.676709 128.684454 
L 71.134303 129.057264 
L 71.592084 129.430016 
L 72.049959 129.80264 
L 72.507924 130.175141 
L 72.965978 130.547486 
L 73.424119 130.919703 
L 73.882357 131.291781 
L 74.340684 131.663713 
L 74.799104 132.0355 
L 75.257617 132.407147 
L 75.716225 132.778638 
L 76.174923 133.149971 
L 76.633718 133.521153 
L 77.092609 133.892179 
L 77.551596 134.263041 
L 78.010679 134.633747 
L 78.469859 135.004284 
L 78.929135 135.374658 
L 79.388511 135.744864 
L 79.847986 136.114895 
L 80.30756 136.484758 
L 80.767235 136.854441 
L 81.22701 137.223949 
L 81.686884 137.593271 
L 82.146862 137.962413 
L 82.606943 138.331369 
" clip-path="url(#p61f787ba30)" style="fill: none; stroke: #029e73; stroke-width: 1.5; stroke-linecap: square"/>
   </g>
   <g id="line2d_5">
    <path d="M 53.237271 137.839437 
L 53.046162 137.273848 
L 52.855158 136.708247 
L 52.664263 136.142629 
L 52.473469 135.576994 
L 52.282788 135.011347 
L 52.092214 134.445677 
L 51.901743 133.879971 
L 51.711381 133.314254 
L 51.521123 132.748503 
L 51.330968 132.182728 
L 51.140922 131.616918 
L 50.950977 131.051067 
L 50.761138 130.485188 
L 50.571405 129.919262 
L 50.381773 129.353306 
L 50.192247 128.787299 
L 50.00282 128.221251 
L 49.813501 127.65515 
L 49.624282 127.088997 
L 49.435165 126.522798 
L 49.246153 125.95654 
L 49.057237 125.390236 
L 48.868427 124.823863 
L 48.679719 124.257431 
L 48.491106 123.690929 
L 48.302541 123.124358 
L 48.114003 122.557723 
L 47.925499 121.991 
L 47.73703 121.424196 
L 47.548594 120.857305 
L 47.360208 120.290338 
L 47.171862 119.723296 
L 46.983572 119.156149 
L 46.795332 118.588921 
L 46.60715 118.0216 
L 46.419031 117.454191 
L 46.230976 116.88669 
L 46.042993 116.319084 
L 45.855078 115.75139 
L 45.667243 115.183592 
L 45.479486 114.615696 
L 45.291813 114.047694 
L 45.104226 113.479582 
L 44.916726 112.911378 
L 44.729332 112.343056 
L 44.54203 111.774628 
L 44.354828 111.206083 
L 44.167737 110.637427 
L 43.980754 110.068659 
L 43.793871 109.499765 
L 43.607018 108.930729 
L 43.420175 108.361545 
L 43.233354 107.7922 
L 43.046538 107.222708 
L 42.859742 106.653056 
L 42.672967 106.083241 
L 42.486195 105.513263 
L 42.299448 104.943113 
L 42.11271 104.372798 
L 41.925988 103.802309 
L 41.739284 103.231645 
L 41.552596 102.660807 
L 41.36592 102.089783 
L 41.179263 101.518578 
L 40.992618 100.947182 
L 40.805989 100.3756 
L 40.619375 99.803826 
L 40.432779 99.231857 
L 40.246193 98.659691 
L 40.059632 98.087324 
L 39.87308 97.51475 
L 39.686547 96.94197 
L 39.500029 96.36899 
L 39.31353 95.795789 
L 39.127006 95.222413 
L 38.940367 94.648951 
L 38.753598 94.075403 
L 38.566712 93.501763 
L 38.379695 92.928045 
L 38.192546 92.354233 
L 38.005266 91.78034 
L 37.817852 91.206351 
L 37.6303 90.632278 
L 37.442614 90.058115 
L 37.254779 89.483862 
L 37.066805 88.909521 
L 36.878686 88.335082 
L 36.690418 87.760552 
L 36.501998 87.185933 
L 36.313432 86.61122 
L 36.124705 86.036416 
L 35.93583 85.461513 
L 35.746787 84.886516 
L 35.557583 84.311424 
L 35.368224 83.736236 
L 35.178692 83.160952 
L 34.988995 82.585571 
L 34.799131 82.010094 
L 34.609091 81.434514 
" clip-path="url(#p61f787ba30)" style="fill: none; stroke: #029e73; stroke-width: 1.5; stroke-linecap: square"/>
   </g>
   <g id="line2d_6">
    <path d="M 43.336107 95.44315 
L 43.529121 95.142516 
L 43.722145 94.841869 
L 43.915185 94.541211 
L 44.108243 94.240533 
L 44.301313 93.93984 
L 44.494408 93.639123 
L 44.687528 93.33839 
L 44.88067 93.037627 
L 45.07384 92.736841 
L 45.267034 92.43602 
L 45.460265 92.135173 
L 45.653534 91.834291 
L 45.846834 91.533375 
L 46.040174 91.232417 
L 46.233548 90.931425 
L 46.426968 90.630392 
L 46.620441 90.329307 
L 46.813952 90.028184 
L 47.007518 89.727005 
L 47.20113 89.425783 
L 47.394802 89.124503 
L 47.588529 88.823174 
L 47.782309 88.52178 
L 47.976154 88.220332 
L 48.170061 87.918822 
L 48.364039 87.61724 
L 48.558095 87.315588 
L 48.752228 87.013857 
L 48.946435 86.712051 
L 49.140726 86.410165 
L 49.335101 86.108196 
L 49.529556 85.806151 
L 49.724101 85.504017 
L 49.918727 85.201799 
L 50.113449 84.899493 
L 50.308266 84.597099 
L 50.503165 84.294615 
L 50.698168 83.992034 
L 50.893259 83.689364 
L 51.088458 83.386595 
L 51.283753 83.083728 
L 51.47915 82.780762 
L 51.674649 82.477695 
L 51.870254 82.174527 
L 52.06597 81.87125 
L 52.261791 81.567872 
L 52.457721 81.264381 
L 52.653769 80.960783 
L 52.849928 80.657075 
L 53.046205 80.353247 
L 53.242634 80.049281 
L 53.439218 79.74517 
L 53.635953 79.440911 
L 53.832853 79.136501 
L 54.029914 78.831936 
L 54.227139 78.527219 
L 54.424531 78.222338 
L 54.622103 77.917298 
L 54.819846 77.612094 
L 55.017765 77.306722 
L 55.215867 77.001181 
L 55.414151 76.69547 
L 55.612622 76.38958 
L 55.811284 76.083513 
L 56.010136 75.777265 
L 56.209189 75.470836 
L 56.408434 75.164219 
L 56.60788 74.857416 
L 56.807531 74.550419 
L 57.007396 74.243229 
L 57.207465 73.935841 
L 57.407748 73.628254 
L 57.608247 73.320467 
L 57.808967 73.012473 
L 58.009873 72.704307 
L 58.210877 72.396055 
L 58.411975 72.08772 
L 58.613172 71.7793 
L 58.814465 71.4708 
L 59.015851 71.162212 
L 59.217342 70.85354 
L 59.418929 70.54478 
L 59.620615 70.235935 
L 59.822407 69.927003 
L 60.024295 69.617985 
L 60.226288 69.308876 
L 60.428386 68.999679 
L 60.630587 68.690393 
L 60.832895 68.381016 
L 61.035304 68.071549 
L 61.237821 67.761992 
L 61.440446 67.452342 
L 61.64318 67.1426 
L 61.846023 66.832764 
L 62.048975 66.522835 
L 62.252037 66.212812 
L 62.45521 65.902696 
L 62.658497 65.592483 
L 62.861895 65.282174 
" clip-path="url(#p61f787ba30)" style="fill: none; stroke: #029e73; stroke-width: 1.5; stroke-linecap: square"/>
   </g>
   <g id="line2d_7">
    <path d="M 186.790909 160.332911 
L 186.341244 160.024109 
L 185.891585 159.715301 
L 185.441944 159.406475 
L 184.992329 159.097627 
L 184.542725 158.788766 
L 184.093153 158.479877 
L 183.643599 158.17097 
L 183.194083 157.862034 
L 182.744591 157.553075 
L 182.295149 157.244087 
L 181.845725 156.935052 
L 181.396351 156.625994 
L 180.947008 156.316896 
L 180.497715 156.007762 
L 180.048471 155.698594 
L 179.59927 155.389367 
L 179.150119 155.080094 
L 178.701024 154.77078 
L 178.251979 154.461414 
L 177.803007 154.152002 
L 177.35408 153.842519 
L 176.905232 153.533002 
L 176.456434 153.223409 
L 176.007717 152.913753 
L 175.559068 152.604044 
L 175.110494 152.294247 
L 174.662006 151.984387 
L 174.213611 151.674446 
L 173.765296 151.364423 
L 173.317075 151.054318 
L 172.868946 150.744121 
L 172.420917 150.43386 
L 171.972968 150.123494 
L 171.525143 149.813047 
L 171.077398 149.502512 
L 170.629766 149.191879 
L 170.182232 148.881147 
L 169.734803 148.570322 
L 169.287493 148.259409 
L 168.840288 147.948387 
L 168.393188 147.637259 
L 167.946211 147.326039 
L 167.499341 147.014708 
L 167.052606 146.703267 
L 166.605971 146.391721 
L 166.159472 146.08007 
L 165.713091 145.768297 
L 165.26684 145.45642 
L 164.820719 145.144421 
L 164.374722 144.832299 
L 163.928892 144.520038 
L 163.483224 144.207632 
L 163.037716 143.895063 
L 162.592376 143.582348 
L 162.147215 143.269471 
L 161.702228 142.956437 
L 161.257421 142.643235 
L 160.812793 142.329869 
L 160.368351 142.016341 
L 159.924089 141.702632 
L 159.480026 141.388755 
L 159.036154 141.074698 
L 158.59248 140.760461 
L 158.149005 140.446049 
L 157.705728 140.13144 
L 157.262656 139.81665 
L 156.819794 139.501668 
L 156.37715 139.186495 
L 155.934715 138.871118 
L 155.492498 138.555544 
L 155.050498 138.239778 
L 154.60872 137.923808 
L 154.167172 137.607617 
L 153.725853 137.291223 
L 153.284727 136.974655 
L 152.843693 136.657999 
L 152.402746 136.341251 
L 151.961879 136.024432 
L 151.521118 135.707527 
L 151.080438 135.390534 
L 150.63985 135.073454 
L 150.199355 134.756292 
L 149.758941 134.439038 
L 149.31862 134.121702 
L 148.87841 133.804273 
L 148.438275 133.486757 
L 147.998245 133.169154 
L 147.558308 132.851464 
L 147.118457 132.53368 
L 146.6787 132.215804 
L 146.239054 131.897846 
L 145.799489 131.579784 
L 145.360035 131.261634 
L 144.920668 130.943392 
L 144.4814 130.625062 
L 144.042238 130.306633 
L 143.603168 129.988106 
L 143.164198 129.669491 
L 142.725333 129.350778 
" clip-path="url(#p61f787ba30)" style="fill: none; stroke: #029e73; stroke-width: 1.5; stroke-linecap: square"/>
   </g>
   <g id="line2d_8">
    <path d="M 34.609091 81.434514 
L 34.643834 81.639835 
L 34.678558 81.845144 
L 34.713269 82.050441 
L 34.747965 82.25572 
L 34.782643 82.460982 
L 34.817299 82.666222 
L 34.851933 82.871444 
L 34.886542 83.076639 
L 34.921127 83.281809 
L 34.955671 83.486955 
L 34.990197 83.692067 
L 35.024689 83.897151 
L 35.05914 84.102199 
L 35.093561 84.307212 
L 35.127935 84.51219 
L 35.162271 84.717125 
L 35.196565 84.922022 
L 35.230818 85.126875 
L 35.265018 85.331681 
L 35.299172 85.536444 
L 35.333277 85.741152 
L 35.367322 85.945816 
L 35.401318 86.150422 
L 35.435259 86.354977 
L 35.469134 86.559472 
L 35.502947 86.763903 
L 35.536686 86.968269 
L 35.570356 87.172566 
L 35.603959 87.376792 
L 35.637478 87.580946 
L 35.670925 87.785025 
L 35.704289 87.989035 
L 35.737582 88.192961 
L 35.770788 88.396811 
L 35.803913 88.600582 
L 35.836955 88.804273 
L 35.869904 89.007878 
L 35.902775 89.2114 
L 35.935545 89.414834 
L 35.96823 89.618182 
L 36.000826 89.821439 
L 36.033322 90.024606 
L 36.065726 90.22768 
L 36.098024 90.430661 
L 36.130232 90.633546 
L 36.162335 90.836335 
L 36.194333 91.039022 
L 36.226231 91.241611 
L 36.258021 91.444095 
L 36.289703 91.646477 
L 36.321252 91.848734 
L 36.352667 92.050855 
L 36.383946 92.25285 
L 36.415085 92.454709 
L 36.446079 92.656432 
L 36.476934 92.858009 
L 36.507639 93.059452 
L 36.538193 93.260748 
L 36.568595 93.461897 
L 36.598849 93.662899 
L 36.628938 93.863749 
L 36.658872 94.064443 
L 36.688642 94.264985 
L 36.718251 94.465368 
L 36.74769 94.665585 
L 36.776961 94.865645 
L 36.806062 95.065536 
L 36.834983 95.265259 
L 36.863734 95.464813 
L 36.892305 95.664193 
L 36.920691 95.863398 
L 36.948896 96.062426 
L 36.97691 96.261274 
L 37.00474 96.459941 
L 37.032407 96.658455 
L 37.060002 96.856893 
L 37.08752 97.055261 
L 37.114957 97.253557 
L 37.142326 97.451777 
L 37.169614 97.649925 
L 37.196825 97.847996 
L 37.223962 98.045998 
L 37.251021 98.243922 
L 37.278 98.441773 
L 37.304898 98.639545 
L 37.331719 98.837242 
L 37.358459 99.034866 
L 37.385122 99.232406 
L 37.411701 99.429874 
L 37.438199 99.627259 
L 37.464614 99.82457 
L 37.490951 100.021799 
L 37.517202 100.218952 
L 37.543372 100.416024 
L 37.569455 100.613012 
L 37.595455 100.809924 
L 37.621374 101.006749 
L 37.6472 101.203498 
L 37.672949 101.400163 
" clip-path="url(#p61f787ba30)" style="fill: none; stroke: #029e73; stroke-width: 1.5; stroke-linecap: square"/>
   </g>
   <g id="line2d_9">
    <path d="M 83.153772 80.414087 
L 83.228989 80.91118 
L 83.304219 81.408261 
L 83.379466 81.905328 
L 83.45473 82.402376 
L 83.530017 82.899404 
L 83.605326 83.396412 
L 83.680661 83.893395 
L 83.756024 84.390351 
L 83.831418 84.88728 
L 83.906845 85.384177 
L 83.982308 85.88104 
L 84.057809 86.37787 
L 84.13335 86.87466 
L 84.208934 87.371412 
L 84.284564 87.86812 
L 84.360242 88.36479 
L 84.435969 88.861406 
L 84.51175 89.357974 
L 84.587586 89.854492 
L 84.663479 90.35096 
L 84.739432 90.847365 
L 84.815448 91.34372 
L 84.891529 91.840012 
L 84.967678 92.336239 
L 85.043896 92.832402 
L 85.120194 93.328493 
L 85.196575 93.824511 
L 85.273042 94.320445 
L 85.349597 94.816297 
L 85.426241 95.312074 
L 85.502977 95.807758 
L 85.579806 96.303361 
L 85.656731 96.798876 
L 85.733752 97.294298 
L 85.810874 97.78963 
L 85.888096 98.284872 
L 85.965422 98.780015 
L 86.042853 99.275063 
L 86.120391 99.770014 
L 86.198038 100.264861 
L 86.275796 100.759606 
L 86.353668 101.254246 
L 86.431654 101.748782 
L 86.509757 102.243207 
L 86.587979 102.737525 
L 86.666321 103.231732 
L 86.744787 103.725826 
L 86.823377 104.219807 
L 86.902094 104.713668 
L 86.980943 105.207405 
L 87.059949 105.701005 
L 87.139118 106.19445 
L 87.218453 106.687745 
L 87.297957 107.18088 
L 87.377633 107.673864 
L 87.457484 108.166682 
L 87.537514 108.659337 
L 87.617725 109.151823 
L 87.69812 109.644147 
L 87.778703 110.136294 
L 87.859475 110.628269 
L 87.940441 111.120061 
L 88.021603 111.611676 
L 88.102964 112.10311 
L 88.184528 112.594361 
L 88.266297 113.085409 
L 88.348274 113.576283 
L 88.430462 114.066959 
L 88.512864 114.557431 
L 88.595485 115.047706 
L 88.678325 115.537783 
L 88.761389 116.027651 
L 88.844678 116.51731 
L 88.928197 117.006759 
L 89.011908 117.496034 
L 89.095714 117.985227 
L 89.179609 118.474334 
L 89.263596 118.963359 
L 89.347673 119.452296 
L 89.431844 119.941147 
L 89.516106 120.429916 
L 89.600462 120.918604 
L 89.684912 121.407204 
L 89.769457 121.895706 
L 89.854096 122.384138 
L 89.938831 122.872471 
L 90.023662 123.360723 
L 90.108591 123.848876 
L 90.193616 124.336948 
L 90.27874 124.824932 
L 90.363962 125.312818 
L 90.449284 125.800616 
L 90.534705 126.288328 
L 90.620228 126.77594 
L 90.70585 127.263471 
L 90.791574 127.750897 
L 90.877401 128.238231 
L 90.963331 128.725477 
L 91.049364 129.212624 
" clip-path="url(#p61f787ba30)" style="fill: none; stroke: #029e73; stroke-width: 1.5; stroke-linecap: square"/>
   </g>
   <g id="line2d_10">
    <path d="M 35.397393 80.93572 
L 36.285793 81.633215 
L 37.174203 82.330694 
L 38.062628 83.028161 
L 38.951074 83.725608 
L 39.83954 84.423038 
L 40.728027 85.120445 
L 41.616545 85.817827 
L 42.505087 86.515185 
L 43.393661 87.212512 
L 44.282263 87.909812 
L 45.170908 88.607076 
L 46.059584 89.304302 
L 46.948306 90.001493 
L 47.837069 90.698643 
L 48.725875 91.39575 
L 49.614727 92.092813 
L 50.503636 92.789827 
L 51.392594 93.486795 
L 52.281607 94.183713 
L 53.170674 94.880573 
L 54.059808 95.577377 
L 54.948995 96.274127 
L 55.838257 96.970812 
L 56.72758 97.667433 
L 57.616972 98.363991 
L 58.50645 99.060473 
L 59.396006 99.756882 
L 60.285645 100.453207 
L 61.175379 101.149448 
L 62.065199 101.84561 
L 62.955109 102.541683 
L 63.845111 103.23767 
L 64.735217 103.933571 
L 65.625411 104.629373 
L 66.515707 105.325091 
L 67.406107 106.020712 
L 68.296603 106.716232 
L 69.187214 107.411659 
L 70.077922 108.106981 
L 70.968747 108.802205 
L 71.859677 109.497326 
L 72.750726 110.192338 
L 73.641884 110.887242 
L 74.533162 111.582041 
L 75.424559 112.276723 
L 76.316074 112.971299 
L 77.207713 113.665758 
L 78.099478 114.360095 
L 78.991366 115.054321 
L 79.883387 115.74842 
L 80.775569 116.442373 
L 81.667911 117.13617 
L 82.560422 117.829815 
L 83.453102 118.523303 
L 84.345954 119.216634 
L 85.238976 119.909791 
L 86.132183 120.602785 
L 87.025572 121.295611 
L 87.919144 121.988262 
L 88.812905 122.680739 
L 89.706856 123.373035 
L 90.600997 124.065146 
L 91.495337 124.757082 
L 92.38988 125.448832 
L 93.284625 126.140391 
L 94.179574 126.831757 
L 95.074734 127.522926 
L 95.9701 128.213891 
L 96.865684 128.904665 
L 97.761489 129.595235 
L 98.657514 130.28559 
L 99.553764 130.975747 
L 100.450233 131.665684 
L 101.34694 132.355411 
L 102.243838 133.044958 
L 103.14083 133.734418 
L 104.037917 134.423784 
L 104.935091 135.11307 
L 105.832357 135.802268 
L 106.729717 136.491379 
L 107.627174 137.180409 
L 108.52472 137.869345 
L 109.422367 138.558189 
L 110.320105 139.246951 
L 111.217938 139.935615 
L 112.115869 140.624191 
L 113.013902 141.31268 
L 113.912027 142.001082 
L 114.810251 142.68939 
L 115.708578 143.3776 
L 116.606998 144.065717 
L 117.505523 144.753747 
L 118.40415 145.441678 
L 119.302876 146.12951 
L 120.201708 146.817249 
L 121.100639 147.504895 
L 121.999672 148.192437 
L 122.89881 148.879891 
L 123.798057 149.567247 
" clip-path="url(#p61f787ba30)" style="fill: none; stroke: #029e73; stroke-width: 1.5; stroke-linecap: square"/>
   </g>
   <g id="line2d_11">
    <path d="M 48.036794 62.406306 
L 48.988691 63.086783 
L 49.940603 63.767247 
L 50.892528 64.447696 
L 51.844468 65.128128 
L 52.796436 65.80854 
L 53.748422 66.488931 
L 54.70044 67.169297 
L 55.652479 67.849637 
L 56.604553 68.529948 
L 57.556654 69.210227 
L 58.508799 69.890474 
L 59.460977 70.570686 
L 60.413196 71.250858 
L 61.365459 71.930991 
L 62.317764 72.611081 
L 63.27012 73.291126 
L 64.222527 73.971123 
L 65.174983 74.651073 
L 66.127498 75.330969 
L 67.080067 76.010811 
L 68.032702 76.690597 
L 68.985395 77.370326 
L 69.938151 78.04999 
L 70.890979 78.729594 
L 71.843873 79.409129 
L 72.796853 80.088592 
L 73.74991 80.767976 
L 74.703053 81.447281 
L 75.656288 82.126501 
L 76.609612 82.805638 
L 77.563029 83.484688 
L 78.516535 84.163652 
L 79.47014 84.842524 
L 80.42384 85.521306 
L 81.377642 86.199996 
L 82.331545 86.87859 
L 83.285549 87.557084 
L 84.239664 88.235483 
L 85.193881 88.913776 
L 86.14821 89.59197 
L 87.10265 90.27006 
L 88.057204 90.948045 
L 89.011872 91.625916 
L 89.966655 92.303683 
L 90.921563 92.981339 
L 91.876586 93.658876 
L 92.831736 94.3363 
L 93.787009 95.013608 
L 94.742409 95.690796 
L 95.697943 96.367857 
L 96.653634 97.044772 
L 97.609489 97.721539 
L 98.565511 98.398143 
L 99.521703 99.07459 
L 100.478069 99.750875 
L 101.434608 100.426993 
L 102.391329 101.102944 
L 103.348234 101.778722 
L 104.305321 102.454332 
L 105.262598 103.129759 
L 106.220068 103.805015 
L 107.177726 104.480082 
L 108.135587 105.154965 
L 109.093647 105.829663 
L 110.051912 106.504168 
L 111.010382 107.178479 
L 111.969063 107.852592 
L 112.927953 108.526508 
L 113.887062 109.200226 
L 114.846388 109.873735 
L 115.805934 110.547037 
L 116.76571 111.220127 
L 117.725705 111.893002 
L 118.685942 112.565668 
L 119.646368 113.238148 
L 120.60689 113.910541 
L 121.567499 114.582846 
L 122.528203 115.255064 
L 123.488998 115.927195 
L 124.449889 116.599239 
L 125.410872 117.271201 
L 126.371952 117.943071 
L 127.333125 118.614853 
L 128.294393 119.286548 
L 129.255758 119.958144 
L 130.217222 120.629653 
L 131.178779 121.301075 
L 132.140438 121.972404 
L 133.102196 122.64364 
L 134.064053 123.314777 
L 135.02601 123.985827 
L 135.988062 124.656778 
L 136.950223 125.327641 
L 137.912483 125.998406 
L 138.874849 126.669078 
L 139.837313 127.339645 
L 140.799877 128.010114 
L 141.762558 128.680501 
L 142.725333 129.350778 
" clip-path="url(#p61f787ba30)" style="fill: none; stroke: #029e73; stroke-width: 1.5; stroke-linecap: square"/>
   </g>
   <g id="patch_3">
    <path d="M 27 192.24 
L 27 25.92 
" style="fill: none; stroke: #000000; stroke-width: 0.8; stroke-linejoin: miter; stroke-linecap: square"/>
   </g>
   <g id="patch_4">
    <path d="M 194.4 192.24 
L 194.4 25.92 
" style="fill: none; stroke: #000000; stroke-width: 0.8; stroke-linejoin: miter; stroke-linecap: square"/>
   </g>
   <g id="patch_5">
    <path d="M 27 192.24 
L 194.4 192.24 
" style="fill: none; stroke: #000000; stroke-width: 0.8; stroke-linejoin: miter; stroke-linecap: square"/>
   </g>
   <g id="patch_6">
    <path d="M 27 25.92 
L 194.4 25.92 
" style="fill: none; stroke: #000000; stroke-width: 0.8; stroke-linejoin: miter; stroke-linecap: square"/>
   </g>
   <g id="text_3">
    <!-- Geodesics FlatVI λ=7 -->
    <g transform="translate(4.096875 19.92) scale(0.2 -0.2)">
     <defs>
      <path id="DejaVuSans-47" d="M 3809 666 
L 3809 1919 
L 2778 1919 
L 2778 2438 
L 4434 2438 
L 4434 434 
Q 4069 175 3628 42 
Q 3188 -91 2688 -91 
Q 1594 -91 976 548 
Q 359 1188 359 2328 
Q 359 3472 976 4111 
Q 1594 4750 2688 4750 
Q 3144 4750 3555 4637 
Q 3966 4525 4313 4306 
L 4313 3634 
Q 3963 3931 3569 4081 
Q 3175 4231 2741 4231 
Q 1884 4231 1454 3753 
Q 1025 3275 1025 2328 
Q 1025 1384 1454 906 
Q 1884 428 2741 428 
Q 3075 428 3337 486 
Q 3600 544 3809 666 
z
" transform="scale(0.015625)"/>
      <path id="DejaVuSans-6f" d="M 1959 3097 
Q 1497 3097 1228 2736 
Q 959 2375 959 1747 
Q 959 1119 1226 758 
Q 1494 397 1959 397 
Q 2419 397 2687 759 
Q 2956 1122 2956 1747 
Q 2956 2369 2687 2733 
Q 2419 3097 1959 3097 
z
M 1959 3584 
Q 2709 3584 3137 3096 
Q 3566 2609 3566 1747 
Q 3566 888 3137 398 
Q 2709 -91 1959 -91 
Q 1206 -91 779 398 
Q 353 888 353 1747 
Q 353 2609 779 3096 
Q 1206 3584 1959 3584 
z
" transform="scale(0.015625)"/>
      <path id="DejaVuSans-64" d="M 2906 2969 
L 2906 4863 
L 3481 4863 
L 3481 0 
L 2906 0 
L 2906 525 
Q 2725 213 2448 61 
Q 2172 -91 1784 -91 
Q 1150 -91 751 415 
Q 353 922 353 1747 
Q 353 2572 751 3078 
Q 1150 3584 1784 3584 
Q 2172 3584 2448 3432 
Q 2725 3281 2906 2969 
z
M 947 1747 
Q 947 1113 1208 752 
Q 1469 391 1925 391 
Q 2381 391 2643 752 
Q 2906 1113 2906 1747 
Q 2906 2381 2643 2742 
Q 2381 3103 1925 3103 
Q 1469 3103 1208 2742 
Q 947 2381 947 1747 
z
" transform="scale(0.015625)"/>
      <path id="DejaVuSans-73" d="M 2834 3397 
L 2834 2853 
Q 2591 2978 2328 3040 
Q 2066 3103 1784 3103 
Q 1356 3103 1142 2972 
Q 928 2841 928 2578 
Q 928 2378 1081 2264 
Q 1234 2150 1697 2047 
L 1894 2003 
Q 2506 1872 2764 1633 
Q 3022 1394 3022 966 
Q 3022 478 2636 193 
Q 2250 -91 1575 -91 
Q 1294 -91 989 -36 
Q 684 19 347 128 
L 347 722 
Q 666 556 975 473 
Q 1284 391 1588 391 
Q 1994 391 2212 530 
Q 2431 669 2431 922 
Q 2431 1156 2273 1281 
Q 2116 1406 1581 1522 
L 1381 1569 
Q 847 1681 609 1914 
Q 372 2147 372 2553 
Q 372 3047 722 3315 
Q 1072 3584 1716 3584 
Q 2034 3584 2315 3537 
Q 2597 3491 2834 3397 
z
" transform="scale(0.015625)"/>
      <path id="DejaVuSans-69" d="M 603 3500 
L 1178 3500 
L 1178 0 
L 603 0 
L 603 3500 
z
M 603 4863 
L 1178 4863 
L 1178 4134 
L 603 4134 
L 603 4863 
z
" transform="scale(0.015625)"/>
      <path id="DejaVuSans-63" d="M 3122 3366 
L 3122 2828 
Q 2878 2963 2633 3030 
Q 2388 3097 2138 3097 
Q 1578 3097 1268 2742 
Q 959 2388 959 1747 
Q 959 1106 1268 751 
Q 1578 397 2138 397 
Q 2388 397 2633 464 
Q 2878 531 3122 666 
L 3122 134 
Q 2881 22 2623 -34 
Q 2366 -91 2075 -91 
Q 1284 -91 818 406 
Q 353 903 353 1747 
Q 353 2603 823 3093 
Q 1294 3584 2113 3584 
Q 2378 3584 2631 3529 
Q 2884 3475 3122 3366 
z
" transform="scale(0.015625)"/>
      <path id="DejaVuSans-46" d="M 628 4666 
L 3309 4666 
L 3309 4134 
L 1259 4134 
L 1259 2759 
L 3109 2759 
L 3109 2228 
L 1259 2228 
L 1259 0 
L 628 0 
L 628 4666 
z
" transform="scale(0.015625)"/>
      <path id="DejaVuSans-6c" d="M 603 4863 
L 1178 4863 
L 1178 0 
L 603 0 
L 603 4863 
z
" transform="scale(0.015625)"/>
      <path id="DejaVuSans-56" d="M 1831 0 
L 50 4666 
L 709 4666 
L 2188 738 
L 3669 4666 
L 4325 4666 
L 2547 0 
L 1831 0 
z
" transform="scale(0.015625)"/>
      <path id="DejaVuSans-49" d="M 628 4666 
L 1259 4666 
L 1259 0 
L 628 0 
L 628 4666 
z
" transform="scale(0.015625)"/>
      <path id="DejaVuSans-3bb" d="M 1981 4316 
L 3597 0 
L 2988 0 
L 2006 2588 
L 800 0 
L 191 0 
L 1725 3356 
L 1494 3975 
Q 1347 4369 1013 4369 
L 713 4369 
L 713 4863 
L 1078 4856 
Q 1784 4847 1981 4316 
z
" transform="scale(0.015625)"/>
      <path id="DejaVuSans-3d" d="M 678 2906 
L 4684 2906 
L 4684 2381 
L 678 2381 
L 678 2906 
z
M 678 1631 
L 4684 1631 
L 4684 1100 
L 678 1100 
L 678 1631 
z
" transform="scale(0.015625)"/>
      <path id="DejaVuSans-37" d="M 525 4666 
L 3525 4666 
L 3525 4397 
L 1831 0 
L 1172 0 
L 2766 4134 
L 525 4134 
L 525 4666 
z
" transform="scale(0.015625)"/>
     </defs>
     <use xlink:href="#DejaVuSans-47"/>
     <use xlink:href="#DejaVuSans-65" x="77.490234"/>
     <use xlink:href="#DejaVuSans-6f" x="139.013672"/>
     <use xlink:href="#DejaVuSans-64" x="200.195312"/>
     <use xlink:href="#DejaVuSans-65" x="263.671875"/>
     <use xlink:href="#DejaVuSans-73" x="325.195312"/>
     <use xlink:href="#DejaVuSans-69" x="377.294922"/>
     <use xlink:href="#DejaVuSans-63" x="405.078125"/>
     <use xlink:href="#DejaVuSans-73" x="460.058594"/>
     <use xlink:href="#DejaVuSans-20" x="512.158203"/>
     <use xlink:href="#DejaVuSans-46" x="543.945312"/>
     <use xlink:href="#DejaVuSans-6c" x="601.464844"/>
     <use xlink:href="#DejaVuSans-61" x="629.248047"/>
     <use xlink:href="#DejaVuSans-74" x="690.527344"/>
     <use xlink:href="#DejaVuSans-56" x="729.736328"/>
     <use xlink:href="#DejaVuSans-49" x="798.144531"/>
     <use xlink:href="#DejaVuSans-20" x="827.636719"/>
     <use xlink:href="#DejaVuSans-3bb" x="859.423828"/>
     <use xlink:href="#DejaVuSans-3d" x="918.603516"/>
     <use xlink:href="#DejaVuSans-37" x="1002.392578"/>
    </g>
   </g>
  </g>
 </g>
 <defs>
  <clipPath id="p61f787ba30">
   <rect x="27" y="25.92" width="167.4" height="166.32"/>
  </clipPath>
 </defs>
</svg>
