<?xml version="1.0" encoding="utf-8" standalone="no"?>
<!DOCTYPE svg PUBLIC "-//W3C//DTD SVG 1.1//EN"
  "http://www.w3.org/Graphics/SVG/1.1/DTD/svg11.dtd">
<svg xmlns:xlink="http://www.w3.org/1999/xlink" width="216pt" height="216pt" viewBox="0 0 216 216" xmlns="http://www.w3.org/2000/svg" version="1.1">
 <metadata>
  <rdf:RDF xmlns:dc="http://purl.org/dc/elements/1.1/" xmlns:cc="http://creativecommons.org/ns#" xmlns:rdf="http://www.w3.org/1999/02/22-rdf-syntax-ns#">
   <cc:Work>
    <dc:type rdf:resource="http://purl.org/dc/dcmitype/StillImage"/>
    <dc:date>2024-11-18T21:32:14.701250</dc:date>
    <dc:format>image/svg+xml</dc:format>
    <dc:creator>
     <cc:Agent>
      <dc:title>Matplotlib v3.8.1, https://matplotlib.org/</dc:title>
     </cc:Agent>
    </dc:creator>
   </cc:Work>
  </rdf:RDF>
 </metadata>
 <defs>
  <style type="text/css">*{stroke-linejoin: round; stroke-linecap: butt}</style>
 </defs>
 <g id="figure_1">
  <g id="patch_1">
   <path d="M 0 216 
L 216 216 
L 216 0 
L 0 0 
z
" style="fill: #ffffff"/>
  </g>
  <g id="axes_1">
   <g id="patch_2">
    <path d="M 27 192.24 
L 194.4 192.24 
L 194.4 25.92 
L 27 25.92 
z
" style="fill: #ffffff"/>
   </g>
   <g id="PathCollection_1">
    <defs>
     <path id="m09f8007e82" d="M 0 3 
C 0.795609 3 1.55874 2.683901 2.12132 2.12132 
C 2.683901 1.55874 3 0.795609 3 0 
C 3 -0.795609 2.683901 -1.55874 2.12132 -2.12132 
C 1.55874 -2.683901 0.795609 -3 0 -3 
C -0.795609 -3 -1.55874 -2.683901 -2.12132 -2.12132 
C -2.683901 -1.55874 -3 -0.795609 -3 0 
C -3 0.795609 -2.683901 1.55874 -2.12132 2.12132 
C -1.55874 2.683901 -0.795609 3 0 3 
z
" style="stroke: #dcdcdc"/>
    </defs>
    <g clip-path="url(#p4bddca65e8)">
     <use xlink:href="#m09f8007e82" x="63.39354" y="105.591317" style="fill: #dcdcdc; stroke: #dcdcdc"/>
     <use xlink:href="#m09f8007e82" x="178.622974" y="66.122379" style="fill: #dcdcdc; stroke: #dcdcdc"/>
     <use xlink:href="#m09f8007e82" x="135.246867" y="81.026016" style="fill: #dcdcdc; stroke: #dcdcdc"/>
     <use xlink:href="#m09f8007e82" x="75.685843" y="127.894198" style="fill: #dcdcdc; stroke: #dcdcdc"/>
     <use xlink:href="#m09f8007e82" x="119.356325" y="183.472253" style="fill: #dcdcdc; stroke: #dcdcdc"/>
     <use xlink:href="#m09f8007e82" x="146.197681" y="131.689587" style="fill: #dcdcdc; stroke: #dcdcdc"/>
     <use xlink:href="#m09f8007e82" x="154.391876" y="128.766966" style="fill: #dcdcdc; stroke: #dcdcdc"/>
     <use xlink:href="#m09f8007e82" x="105.623551" y="96.44732" style="fill: #dcdcdc; stroke: #dcdcdc"/>
     <use xlink:href="#m09f8007e82" x="34.609091" y="116.800041" style="fill: #dcdcdc; stroke: #dcdcdc"/>
     <use xlink:href="#m09f8007e82" x="70.567983" y="80.176696" style="fill: #dcdcdc; stroke: #dcdcdc"/>
     <use xlink:href="#m09f8007e82" x="77.940206" y="126.888823" style="fill: #dcdcdc; stroke: #dcdcdc"/>
     <use xlink:href="#m09f8007e82" x="181.121211" y="155.222901" style="fill: #dcdcdc; stroke: #dcdcdc"/>
     <use xlink:href="#m09f8007e82" x="76.599635" y="78.630126" style="fill: #dcdcdc; stroke: #dcdcdc"/>
     <use xlink:href="#m09f8007e82" x="186.790909" y="33.48" style="fill: #dcdcdc; stroke: #dcdcdc"/>
     <use xlink:href="#m09f8007e82" x="162.888342" y="162.394891" style="fill: #dcdcdc; stroke: #dcdcdc"/>
     <use xlink:href="#m09f8007e82" x="111.565219" y="138.443832" style="fill: #dcdcdc; stroke: #dcdcdc"/>
     <use xlink:href="#m09f8007e82" x="165.960637" y="160.975442" style="fill: #dcdcdc; stroke: #dcdcdc"/>
     <use xlink:href="#m09f8007e82" x="99.960648" y="140.882759" style="fill: #dcdcdc; stroke: #dcdcdc"/>
     <use xlink:href="#m09f8007e82" x="176.860399" y="133.072058" style="fill: #dcdcdc; stroke: #dcdcdc"/>
     <use xlink:href="#m09f8007e82" x="49.676743" y="184.68" style="fill: #dcdcdc; stroke: #dcdcdc"/>
     <use xlink:href="#m09f8007e82" x="67.269995" y="174.844051" style="fill: #dcdcdc; stroke: #dcdcdc"/>
     <use xlink:href="#m09f8007e82" x="96.360204" y="158.498965" style="fill: #dcdcdc; stroke: #dcdcdc"/>
     <use xlink:href="#m09f8007e82" x="114.882857" y="174.23905" style="fill: #dcdcdc; stroke: #dcdcdc"/>
     <use xlink:href="#m09f8007e82" x="167.443713" y="80.222128" style="fill: #dcdcdc; stroke: #dcdcdc"/>
    </g>
   </g>
   <g id="PathCollection_2">
    <defs>
     <path id="mbfd8ed719d" d="M 0 3 
C 0.795609 3 1.55874 2.683901 2.12132 2.12132 
C 2.683901 1.55874 3 0.795609 3 0 
C 3 -0.795609 2.683901 -1.55874 2.12132 -2.12132 
C 1.55874 -2.683901 0.795609 -3 0 -3 
C -0.795609 -3 -1.55874 -2.683901 -2.12132 -2.12132 
C -2.683901 -1.55874 -3 -0.795609 -3 0 
C -3 0.795609 -2.683901 1.55874 -2.12132 2.12132 
C -1.55874 2.683901 -0.795609 3 0 3 
z
" style="stroke: #de8f05"/>
    </defs>
    <g clip-path="url(#p4bddca65e8)">
     <use xlink:href="#mbfd8ed719d" x="146.197681" y="131.689587" style="fill: #de8f05; stroke: #de8f05"/>
    </g>
   </g>
   <g id="PathCollection_3">
    <g clip-path="url(#p4bddca65e8)">
     <use xlink:href="#mbfd8ed719d" x="119.356325" y="183.472253" style="fill: #de8f05; stroke: #de8f05"/>
    </g>
   </g>
   <g id="PathCollection_4">
    <g clip-path="url(#p4bddca65e8)">
     <use xlink:href="#mbfd8ed719d" x="146.197681" y="131.689587" style="fill: #de8f05; stroke: #de8f05"/>
    </g>
   </g>
   <g id="PathCollection_5">
    <g clip-path="url(#p4bddca65e8)">
     <use xlink:href="#mbfd8ed719d" x="119.356325" y="183.472253" style="fill: #de8f05; stroke: #de8f05"/>
    </g>
   </g>
   <g id="PathCollection_6">
    <g clip-path="url(#p4bddca65e8)">
     <use xlink:href="#mbfd8ed719d" x="96.360204" y="158.498965" style="fill: #de8f05; stroke: #de8f05"/>
    </g>
   </g>
   <g id="PathCollection_7">
    <g clip-path="url(#p4bddca65e8)">
     <use xlink:href="#mbfd8ed719d" x="114.882857" y="174.23905" style="fill: #de8f05; stroke: #de8f05"/>
    </g>
   </g>
   <g id="PathCollection_8">
    <g clip-path="url(#p4bddca65e8)">
     <use xlink:href="#mbfd8ed719d" x="75.685843" y="127.894198" style="fill: #de8f05; stroke: #de8f05"/>
    </g>
   </g>
   <g id="PathCollection_9">
    <g clip-path="url(#p4bddca65e8)">
     <use xlink:href="#mbfd8ed719d" x="67.269995" y="174.844051" style="fill: #de8f05; stroke: #de8f05"/>
    </g>
   </g>
   <g id="PathCollection_10">
    <g clip-path="url(#p4bddca65e8)">
     <use xlink:href="#mbfd8ed719d" x="63.39354" y="105.591317" style="fill: #de8f05; stroke: #de8f05"/>
    </g>
   </g>
   <g id="PathCollection_11">
    <g clip-path="url(#p4bddca65e8)">
     <use xlink:href="#mbfd8ed719d" x="70.567983" y="80.176696" style="fill: #de8f05; stroke: #de8f05"/>
    </g>
   </g>
   <g id="PathCollection_12">
    <g clip-path="url(#p4bddca65e8)">
     <use xlink:href="#mbfd8ed719d" x="146.197681" y="131.689587" style="fill: #de8f05; stroke: #de8f05"/>
    </g>
   </g>
   <g id="PathCollection_13">
    <g clip-path="url(#p4bddca65e8)">
     <use xlink:href="#mbfd8ed719d" x="135.246867" y="81.026016" style="fill: #de8f05; stroke: #de8f05"/>
    </g>
   </g>
   <g id="PathCollection_14">
    <g clip-path="url(#p4bddca65e8)">
     <use xlink:href="#mbfd8ed719d" x="114.882857" y="174.23905" style="fill: #de8f05; stroke: #de8f05"/>
    </g>
   </g>
   <g id="PathCollection_15">
    <g clip-path="url(#p4bddca65e8)">
     <use xlink:href="#mbfd8ed719d" x="111.565219" y="138.443832" style="fill: #de8f05; stroke: #de8f05"/>
    </g>
   </g>
   <g id="PathCollection_16">
    <g clip-path="url(#p4bddca65e8)">
     <use xlink:href="#mbfd8ed719d" x="70.567983" y="80.176696" style="fill: #de8f05; stroke: #de8f05"/>
    </g>
   </g>
   <g id="PathCollection_17">
    <g clip-path="url(#p4bddca65e8)">
     <use xlink:href="#mbfd8ed719d" x="75.685843" y="127.894198" style="fill: #de8f05; stroke: #de8f05"/>
    </g>
   </g>
   <g id="PathCollection_18">
    <g clip-path="url(#p4bddca65e8)">
     <use xlink:href="#mbfd8ed719d" x="154.391876" y="128.766966" style="fill: #de8f05; stroke: #de8f05"/>
    </g>
   </g>
   <g id="PathCollection_19">
    <g clip-path="url(#p4bddca65e8)">
     <use xlink:href="#mbfd8ed719d" x="162.888342" y="162.394891" style="fill: #de8f05; stroke: #de8f05"/>
    </g>
   </g>
   <g id="PathCollection_20">
    <g clip-path="url(#p4bddca65e8)">
     <use xlink:href="#mbfd8ed719d" x="178.622974" y="66.122379" style="fill: #de8f05; stroke: #de8f05"/>
    </g>
   </g>
   <g id="PathCollection_21">
    <g clip-path="url(#p4bddca65e8)">
     <use xlink:href="#mbfd8ed719d" x="181.121211" y="155.222901" style="fill: #de8f05; stroke: #de8f05"/>
    </g>
   </g>
   <g id="PathCollection_22">
    <g clip-path="url(#p4bddca65e8)">
     <use xlink:href="#mbfd8ed719d" x="105.623551" y="96.44732" style="fill: #de8f05; stroke: #de8f05"/>
    </g>
   </g>
   <g id="PathCollection_23">
    <g clip-path="url(#p4bddca65e8)">
     <use xlink:href="#mbfd8ed719d" x="111.565219" y="138.443832" style="fill: #de8f05; stroke: #de8f05"/>
    </g>
   </g>
   <g id="matplotlib.axis_1">
    <g id="text_1">
     <!-- Latent 1 -->
     <g transform="translate(69.128125 211.436875) scale(0.2 -0.2)">
      <defs>
       <path id="DejaVuSans-4c" d="M 628 4666 
L 1259 4666 
L 1259 531 
L 3531 531 
L 3531 0 
L 628 0 
L 628 4666 
z
" transform="scale(0.015625)"/>
       <path id="DejaVuSans-61" d="M 2194 1759 
Q 1497 1759 1228 1600 
Q 959 1441 959 1056 
Q 959 750 1161 570 
Q 1363 391 1709 391 
Q 2188 391 2477 730 
Q 2766 1069 2766 1631 
L 2766 1759 
L 2194 1759 
z
M 3341 1997 
L 3341 0 
L 2766 0 
L 2766 531 
Q 2569 213 2275 61 
Q 1981 -91 1556 -91 
Q 1019 -91 701 211 
Q 384 513 384 1019 
Q 384 1609 779 1909 
Q 1175 2209 1959 2209 
L 2766 2209 
L 2766 2266 
Q 2766 2663 2505 2880 
Q 2244 3097 1772 3097 
Q 1472 3097 1187 3025 
Q 903 2953 641 2809 
L 641 3341 
Q 956 3463 1253 3523 
Q 1550 3584 1831 3584 
Q 2591 3584 2966 3190 
Q 3341 2797 3341 1997 
z
" transform="scale(0.015625)"/>
       <path id="DejaVuSans-74" d="M 1172 4494 
L 1172 3500 
L 2356 3500 
L 2356 3053 
L 1172 3053 
L 1172 1153 
Q 1172 725 1289 603 
Q 1406 481 1766 481 
L 2356 481 
L 2356 0 
L 1766 0 
Q 1100 0 847 248 
Q 594 497 594 1153 
L 594 3053 
L 172 3053 
L 172 3500 
L 594 3500 
L 594 4494 
L 1172 4494 
z
" transform="scale(0.015625)"/>
       <path id="DejaVuSans-65" d="M 3597 1894 
L 3597 1613 
L 953 1613 
Q 991 1019 1311 708 
Q 1631 397 2203 397 
Q 2534 397 2845 478 
Q 3156 559 3463 722 
L 3463 178 
Q 3153 47 2828 -22 
Q 2503 -91 2169 -91 
Q 1331 -91 842 396 
Q 353 884 353 1716 
Q 353 2575 817 3079 
Q 1281 3584 2069 3584 
Q 2775 3584 3186 3129 
Q 3597 2675 3597 1894 
z
M 3022 2063 
Q 3016 2534 2758 2815 
Q 2500 3097 2075 3097 
Q 1594 3097 1305 2825 
Q 1016 2553 972 2059 
L 3022 2063 
z
" transform="scale(0.015625)"/>
       <path id="DejaVuSans-6e" d="M 3513 2113 
L 3513 0 
L 2938 0 
L 2938 2094 
Q 2938 2591 2744 2837 
Q 2550 3084 2163 3084 
Q 1697 3084 1428 2787 
Q 1159 2491 1159 1978 
L 1159 0 
L 581 0 
L 581 3500 
L 1159 3500 
L 1159 2956 
Q 1366 3272 1645 3428 
Q 1925 3584 2291 3584 
Q 2894 3584 3203 3211 
Q 3513 2838 3513 2113 
z
" transform="scale(0.015625)"/>
       <path id="DejaVuSans-20" transform="scale(0.015625)"/>
       <path id="DejaVuSans-31" d="M 794 531 
L 1825 531 
L 1825 4091 
L 703 3866 
L 703 4441 
L 1819 4666 
L 2450 4666 
L 2450 531 
L 3481 531 
L 3481 0 
L 794 0 
L 794 531 
z
" transform="scale(0.015625)"/>
      </defs>
      <use xlink:href="#DejaVuSans-4c"/>
      <use xlink:href="#DejaVuSans-61" x="55.712891"/>
      <use xlink:href="#DejaVuSans-74" x="116.992188"/>
      <use xlink:href="#DejaVuSans-65" x="156.201172"/>
      <use xlink:href="#DejaVuSans-6e" x="217.724609"/>
      <use xlink:href="#DejaVuSans-74" x="281.103516"/>
      <use xlink:href="#DejaVuSans-20" x="320.3125"/>
      <use xlink:href="#DejaVuSans-31" x="352.099609"/>
     </g>
    </g>
   </g>
   <g id="matplotlib.axis_2">
    <g id="text_2">
     <!-- Latent 2 -->
     <g transform="translate(18.840625 150.651875) rotate(-90) scale(0.2 -0.2)">
      <defs>
       <path id="DejaVuSans-32" d="M 1228 531 
L 3431 531 
L 3431 0 
L 469 0 
L 469 531 
Q 828 903 1448 1529 
Q 2069 2156 2228 2338 
Q 2531 2678 2651 2914 
Q 2772 3150 2772 3378 
Q 2772 3750 2511 3984 
Q 2250 4219 1831 4219 
Q 1534 4219 1204 4116 
Q 875 4013 500 3803 
L 500 4441 
Q 881 4594 1212 4672 
Q 1544 4750 1819 4750 
Q 2544 4750 2975 4387 
Q 3406 4025 3406 3419 
Q 3406 3131 3298 2873 
Q 3191 2616 2906 2266 
Q 2828 2175 2409 1742 
Q 1991 1309 1228 531 
z
" transform="scale(0.015625)"/>
      </defs>
      <use xlink:href="#DejaVuSans-4c"/>
      <use xlink:href="#DejaVuSans-61" x="55.712891"/>
      <use xlink:href="#DejaVuSans-74" x="116.992188"/>
      <use xlink:href="#DejaVuSans-65" x="156.201172"/>
      <use xlink:href="#DejaVuSans-6e" x="217.724609"/>
      <use xlink:href="#DejaVuSans-74" x="281.103516"/>
      <use xlink:href="#DejaVuSans-20" x="320.3125"/>
      <use xlink:href="#DejaVuSans-32" x="352.099609"/>
     </g>
    </g>
   </g>
   <g id="line2d_1">
    <path d="M 146.197681 131.689587 
L 146.060685 132.209422 
L 145.92369 132.729266 
L 145.786144 133.249123 
L 145.647863 133.768991 
L 145.509031 134.288874 
L 145.369465 134.808771 
L 145.229164 135.328689 
L 145.087945 135.848628 
L 144.946175 136.36859 
L 144.803119 136.888568 
L 144.659329 137.408582 
L 144.514254 137.928612 
L 144.367709 138.448678 
L 144.220063 138.968771 
L 144.071315 139.488899 
L 143.920914 140.009062 
L 143.769043 140.529255 
L 143.615704 141.049484 
L 143.460528 141.569762 
L 143.304067 142.090074 
L 143.145219 142.610426 
L 142.984901 143.130827 
L 142.822747 143.651272 
L 142.658389 144.171765 
L 142.492379 144.692306 
L 142.323614 145.212905 
L 142.152461 145.73357 
L 141.978738 146.254283 
L 141.802444 146.775062 
L 141.623579 147.295912 
L 141.441959 147.816819 
L 141.257768 148.337801 
L 141.070455 148.85884 
L 140.880204 149.379953 
L 140.687382 149.901142 
L 140.491439 150.422392 
L 140.292373 150.943717 
L 140.090002 151.465126 
L 139.884876 151.986605 
L 139.676078 152.508155 
L 139.464341 153.029792 
L 139.249299 153.551509 
L 139.030583 154.073305 
L 138.808747 154.59519 
L 138.582869 155.117149 
L 138.353871 155.6392 
L 138.121199 156.161335 
L 137.884487 156.683558 
L 137.644653 157.205878 
L 137.400229 157.728286 
L 137.15158 158.250804 
L 136.898157 158.773441 
L 136.639592 159.296197 
L 136.375885 159.819076 
L 136.10722 160.342069 
L 135.833597 160.865191 
L 135.554464 161.388439 
L 135.270006 161.911816 
L 134.979855 162.435329 
L 134.684378 162.958974 
L 134.383209 163.482747 
L 134.07653 164.00666 
L 133.763608 164.530719 
L 133.444809 165.054914 
L 133.120318 165.579255 
L 132.789766 166.10374 
L 132.452787 166.628376 
L 132.109564 167.153161 
L 131.759913 167.6781 
L 131.404203 168.203194 
L 131.041514 168.728445 
L 130.672582 169.253851 
L 130.296487 169.77942 
L 129.913782 170.305152 
L 129.525751 170.83102 
L 129.134414 171.356958 
L 128.740506 171.882963 
L 128.343844 172.409029 
L 127.944611 172.935161 
L 127.542623 173.461359 
L 127.137698 173.987619 
L 126.730201 174.513954 
L 126.319582 175.040359 
L 125.906392 175.566826 
L 125.490264 176.093354 
L 125.071382 176.619962 
L 124.649377 177.146631 
L 124.224802 177.67338 
L 123.797104 178.20019 
L 123.366469 178.727079 
L 122.932895 179.254021 
L 122.496383 179.781051 
L 122.057117 180.308143 
L 121.614544 180.835323 
L 121.16885 181.362556 
L 120.720402 181.889859 
L 120.268831 182.41725 
L 119.814139 182.944721 
L 119.356325 183.472253 
" clip-path="url(#p4bddca65e8)" style="fill: none; stroke: #de8f05; stroke-width: 1.5; stroke-linecap: square"/>
   </g>
   <g id="line2d_2">
    <path d="M 146.197681 131.689587 
L 146.060685 132.209422 
L 145.92369 132.729266 
L 145.786144 133.249123 
L 145.647863 133.768991 
L 145.509031 134.288874 
L 145.369465 134.808771 
L 145.229164 135.328689 
L 145.087945 135.848628 
L 144.946175 136.36859 
L 144.803119 136.888568 
L 144.659329 137.408582 
L 144.514254 137.928612 
L 144.367709 138.448678 
L 144.220063 138.968771 
L 144.071315 139.488899 
L 143.920914 140.009062 
L 143.769043 140.529255 
L 143.615704 141.049484 
L 143.460528 141.569762 
L 143.304067 142.090074 
L 143.145219 142.610426 
L 142.984901 143.130827 
L 142.822747 143.651272 
L 142.658389 144.171765 
L 142.492379 144.692306 
L 142.323614 145.212905 
L 142.152461 145.73357 
L 141.978738 146.254283 
L 141.802444 146.775062 
L 141.623579 147.295912 
L 141.441959 147.816819 
L 141.257768 148.337801 
L 141.070455 148.85884 
L 140.880204 149.379953 
L 140.687382 149.901142 
L 140.491439 150.422392 
L 140.292373 150.943717 
L 140.090002 151.465126 
L 139.884876 151.986605 
L 139.676078 152.508155 
L 139.464341 153.029792 
L 139.249299 153.551509 
L 139.030583 154.073305 
L 138.808747 154.59519 
L 138.582869 155.117149 
L 138.353871 155.6392 
L 138.121199 156.161335 
L 137.884487 156.683558 
L 137.644653 157.205878 
L 137.400229 157.728286 
L 137.15158 158.250804 
L 136.898157 158.773441 
L 136.639592 159.296197 
L 136.375885 159.819076 
L 136.10722 160.342069 
L 135.833597 160.865191 
L 135.554464 161.388439 
L 135.270006 161.911816 
L 134.979855 162.435329 
L 134.684378 162.958974 
L 134.383209 163.482747 
L 134.07653 164.00666 
L 133.763608 164.530719 
L 133.444809 165.054914 
L 133.120318 165.579255 
L 132.789766 166.10374 
L 132.452787 166.628376 
L 132.109564 167.153161 
L 131.759913 167.6781 
L 131.404203 168.203194 
L 131.041514 168.728445 
L 130.672582 169.253851 
L 130.296487 169.77942 
L 129.913782 170.305152 
L 129.525751 170.83102 
L 129.134414 171.356958 
L 128.740506 171.882963 
L 128.343844 172.409029 
L 127.944611 172.935161 
L 127.542623 173.461359 
L 127.137698 173.987619 
L 126.730201 174.513954 
L 126.319582 175.040359 
L 125.906392 175.566826 
L 125.490264 176.093354 
L 125.071382 176.619962 
L 124.649377 177.146631 
L 124.224802 177.67338 
L 123.797104 178.20019 
L 123.366469 178.727079 
L 122.932895 179.254021 
L 122.496383 179.781051 
L 122.057117 180.308143 
L 121.614544 180.835323 
L 121.16885 181.362556 
L 120.720402 181.889859 
L 120.268831 182.41725 
L 119.814139 182.944721 
L 119.356325 183.472253 
" clip-path="url(#p4bddca65e8)" style="fill: none; stroke: #de8f05; stroke-width: 1.5; stroke-linecap: square"/>
   </g>
   <g id="line2d_3">
    <path d="M 96.360204 158.498965 
L 96.668719 158.655007 
L 96.976684 158.811053 
L 97.284464 158.967121 
L 97.591693 159.123198 
L 97.898005 159.279284 
L 98.203949 159.435387 
L 98.509158 159.591509 
L 98.813266 159.747647 
L 99.116823 159.903808 
L 99.419645 160.059991 
L 99.721182 160.2162 
L 100.0218 160.372426 
L 100.3215 160.528688 
L 100.619548 160.684972 
L 100.916861 160.841292 
L 101.212705 160.997633 
L 101.507079 161.154014 
L 101.800169 161.31043 
L 102.091605 161.466881 
L 102.381573 161.623372 
L 102.669887 161.779893 
L 102.956733 161.936468 
L 103.241374 162.093077 
L 103.524547 162.249731 
L 103.8057 162.406438 
L 104.084649 162.563184 
L 104.361761 162.719996 
L 104.636119 162.876852 
L 104.908274 163.033775 
L 105.178224 163.19075 
L 105.445604 163.347786 
L 105.710596 163.504885 
L 105.972834 163.662045 
L 106.232684 163.819266 
L 106.489597 163.976554 
L 106.744122 164.133908 
L 106.995708 164.291332 
L 107.244357 164.448813 
L 107.490618 164.606374 
L 107.73339 164.764005 
L 107.973223 164.921702 
L 108.210486 165.079474 
L 108.444443 165.237325 
L 108.675462 165.395251 
L 108.902992 165.553251 
L 109.127584 165.711327 
L 109.348502 165.869491 
L 109.566299 166.027734 
L 109.780791 166.186056 
L 109.991426 166.344461 
L 110.198204 166.502968 
L 110.400575 166.661586 
L 110.598906 166.820317 
L 110.792095 166.979145 
L 110.980877 167.138093 
L 111.165435 167.297146 
L 111.344668 167.456313 
L 111.519309 167.615608 
L 111.68936 167.775013 
L 111.854085 167.934546 
L 112.014035 168.094197 
L 112.168476 168.253976 
L 112.317959 168.413879 
L 112.462116 168.573914 
L 112.601132 168.73408 
L 112.734271 168.894374 
L 112.862084 169.05481 
L 112.984388 169.215372 
L 113.100816 169.376085 
L 113.211367 169.536925 
L 113.316409 169.697924 
L 113.415575 169.85905 
L 113.508497 170.020326 
L 113.595175 170.18176 
L 113.677078 170.343309 
L 113.75641 170.504924 
L 113.832988 170.666601 
L 113.90773 170.82833 
L 113.979716 170.990121 
L 114.049132 171.151974 
L 114.116161 171.313883 
L 114.180802 171.475859 
L 114.242689 171.637892 
L 114.302555 171.799983 
L 114.359667 171.962144 
L 114.414025 172.124357 
L 114.465811 172.286646 
L 114.51521 172.448987 
L 114.561855 172.611394 
L 114.606112 172.773868 
L 114.647615 172.936402 
L 114.686363 173.098999 
L 114.72254 173.26167 
L 114.756146 173.424399 
L 114.786814 173.587198 
L 114.815094 173.750063 
L 114.840437 173.912986 
L 114.863024 174.075987 
L 114.882857 174.23905 
" clip-path="url(#p4bddca65e8)" style="fill: none; stroke: #de8f05; stroke-width: 1.5; stroke-linecap: square"/>
   </g>
   <g id="line2d_4">
    <path d="M 75.685843 127.894198 
L 75.734875 128.365223 
L 75.783539 128.836258 
L 75.831837 129.307306 
L 75.879216 129.778362 
L 75.926228 130.249436 
L 75.972505 130.720525 
L 76.018231 131.191635 
L 76.063039 131.66276 
L 76.106929 132.133912 
L 76.149717 132.605084 
L 76.191587 133.07628 
L 76.232172 133.547507 
L 76.271654 134.01876 
L 76.310035 134.49004 
L 76.346947 134.961361 
L 76.382573 135.432707 
L 76.416362 135.904096 
L 76.448867 136.375517 
L 76.479718 136.846977 
L 76.508917 137.318479 
L 76.536096 137.790021 
L 76.561805 138.26161 
L 76.585678 138.733249 
L 76.607164 139.204927 
L 76.626814 139.676658 
L 76.643892 140.148446 
L 76.658767 140.620296 
L 76.671071 141.092202 
L 76.680804 141.564171 
L 76.687599 142.036206 
L 76.691822 142.508302 
L 76.693659 142.980464 
L 76.692373 143.452692 
L 76.68815 143.925 
L 76.680988 144.397369 
L 76.671255 144.869813 
L 76.657849 145.342327 
L 76.641505 145.814912 
L 76.622406 146.287581 
L 76.599819 146.760324 
L 76.574109 147.233147 
L 76.54491 147.706044 
L 76.512039 148.179025 
L 76.476229 148.652094 
L 76.436379 149.125247 
L 76.393591 149.598479 
L 76.346947 150.071803 
L 76.296446 150.545216 
L 76.242456 151.018712 
L 76.184242 151.492305 
L 76.12162 151.966012 
L 76.054225 152.43983 
L 75.981687 152.913775 
L 75.904375 153.38783 
L 75.821737 153.862017 
L 75.73414 154.336314 
L 75.641035 154.810752 
L 75.542604 155.285309 
L 75.438847 155.760003 
L 75.329765 156.234824 
L 75.214807 156.709786 
L 75.093972 157.18488 
L 74.96726 157.660119 
L 74.835039 158.1355 
L 74.696575 158.611025 
L 74.552234 159.086687 
L 74.401466 159.562503 
L 74.244637 160.038469 
L 74.081565 160.514584 
L 73.911698 160.990858 
L 73.735404 161.467286 
L 73.552682 161.943877 
L 73.363349 162.420621 
L 73.166855 162.897534 
L 72.964851 163.374582 
L 72.759909 163.851697 
L 72.552579 164.328877 
L 72.342312 164.806124 
L 72.129473 165.283432 
L 71.913696 165.760807 
L 71.695532 166.238247 
L 71.474246 166.715762 
L 71.250022 167.19333 
L 71.023043 167.670978 
L 70.793677 168.148691 
L 70.561005 168.62647 
L 70.325579 169.104325 
L 70.087214 169.582236 
L 69.846278 170.060231 
L 69.601854 170.538292 
L 69.354858 171.016415 
L 69.104741 171.494621 
L 68.851869 171.972889 
L 68.595875 172.451236 
L 68.336759 172.929654 
L 68.074521 173.408138 
L 67.809529 173.886705 
L 67.541231 174.365338 
L 67.269995 174.844051 
" clip-path="url(#p4bddca65e8)" style="fill: none; stroke: #de8f05; stroke-width: 1.5; stroke-linecap: square"/>
   </g>
   <g id="line2d_5">
    <path d="M 63.39354 105.591317 
L 63.341754 105.337394 
L 63.290518 105.08346 
L 63.239834 104.829515 
L 63.1897 104.575556 
L 63.139934 104.321582 
L 63.090902 104.067592 
L 63.042605 103.813585 
L 62.995042 103.559558 
L 62.948397 103.305511 
L 62.902855 103.051442 
L 62.858046 102.797349 
L 62.814524 102.543232 
L 62.771919 102.289088 
L 62.7306 102.034916 
L 62.690567 101.780714 
L 62.652003 101.526483 
L 62.61454 101.272218 
L 62.57873 101.017919 
L 62.544206 100.763586 
L 62.511518 100.509216 
L 62.480299 100.254807 
L 62.4511 100.000359 
L 62.423371 99.74587 
L 62.397478 99.491337 
L 62.373788 99.236762 
L 62.351751 98.982136 
L 62.332653 98.72746 
L 62.315574 98.472731 
L 62.300883 98.217948 
L 62.288946 97.963109 
L 62.279214 97.708216 
L 62.272052 97.453263 
L 62.267461 97.198252 
L 62.265624 96.943182 
L 62.266542 96.68805 
L 62.270399 96.432855 
L 62.276643 96.177598 
L 62.286008 95.922273 
L 62.298496 95.666884 
L 62.313554 95.411428 
L 62.331918 95.155903 
L 62.35322 94.900308 
L 62.378012 94.644642 
L 62.405741 94.388904 
L 62.436409 94.133092 
L 62.470934 93.877207 
L 62.50858 93.621244 
L 62.549715 93.365204 
L 62.59434 93.109088 
L 62.642453 92.852889 
L 62.694974 92.596595 
L 62.751903 92.340203 
L 62.813055 92.083711 
L 62.879165 91.827118 
L 62.949866 91.570421 
L 63.025159 91.313622 
L 63.105593 91.056712 
L 63.190618 90.799695 
L 63.280969 90.542566 
L 63.376278 90.285325 
L 63.476729 90.027971 
L 63.582506 89.770502 
L 63.693424 89.512913 
L 63.809668 89.255205 
L 63.931972 88.997376 
L 64.059419 88.739424 
L 64.192374 88.481346 
L 64.331573 88.223147 
L 64.476281 87.964815 
L 64.626682 87.706353 
L 64.783694 87.447759 
L 64.946216 87.189031 
L 65.114981 86.930171 
L 65.290357 86.671172 
L 65.470507 86.412058 
L 65.653229 86.152887 
L 65.838705 85.893664 
L 66.026385 85.634388 
L 66.216453 85.37506 
L 66.409274 85.115676 
L 66.604484 84.856237 
L 66.802447 84.596745 
L 67.002799 84.337196 
L 67.205537 84.077592 
L 67.411214 83.817936 
L 67.619278 83.558221 
L 67.829913 83.29845 
L 68.043302 83.038622 
L 68.259263 82.778737 
L 68.477794 82.518796 
L 68.699264 82.258798 
L 68.923121 81.998741 
L 69.149916 81.738625 
L 69.379466 81.478451 
L 69.611403 81.218219 
L 69.846462 80.957928 
L 70.084276 80.697578 
L 70.32466 80.437167 
L 70.567983 80.176696 
" clip-path="url(#p4bddca65e8)" style="fill: none; stroke: #de8f05; stroke-width: 1.5; stroke-linecap: square"/>
   </g>
   <g id="line2d_6">
    <path d="M 146.197681 131.689587 
L 145.954358 131.180993 
L 145.711586 130.67239 
L 145.469365 130.163774 
L 145.227511 129.655144 
L 144.986208 129.146502 
L 144.74564 128.637841 
L 144.50599 128.129166 
L 144.266891 127.620468 
L 144.02871 127.111751 
L 143.791815 126.603007 
L 143.555654 126.094243 
L 143.320778 125.585451 
L 143.087005 125.07663 
L 142.854333 124.567776 
L 142.623498 124.058896 
L 142.393397 123.54998 
L 142.165316 123.04103 
L 141.938521 122.532039 
L 141.713195 122.023014 
L 141.489889 121.513951 
L 141.267868 121.004839 
L 141.048051 120.495688 
L 140.830071 119.986491 
L 140.61411 119.477248 
L 140.40017 118.967956 
L 140.188066 118.458606 
L 139.979083 117.949202 
L 139.772305 117.439738 
L 139.568097 116.930208 
L 139.366644 116.42062 
L 139.167579 115.910968 
L 138.971451 115.401253 
L 138.777895 114.891464 
L 138.58746 114.381616 
L 138.399964 113.871694 
L 138.215222 113.361704 
L 138.033603 112.851641 
L 137.854921 112.341503 
L 137.679545 111.831294 
L 137.507107 111.321007 
L 137.338158 110.810642 
L 137.172332 110.3002 
L 137.00981 109.789678 
L 136.851145 109.279075 
L 136.695419 108.768387 
L 136.543365 108.257618 
L 136.395168 107.746761 
L 136.250276 107.235818 
L 136.109424 106.724789 
L 135.971878 106.213666 
L 135.83929 105.702434 
L 135.711476 105.191088 
L 135.588621 104.679626 
L 135.470541 104.168047 
L 135.357419 103.656348 
L 135.249438 103.144529 
L 135.147151 102.632585 
L 135.049638 102.120514 
L 134.957635 101.608314 
L 134.87114 101.095985 
L 134.790339 100.583523 
L 134.715046 100.070928 
L 134.645263 99.558196 
L 134.581724 99.045323 
L 134.523877 98.532312 
L 134.472274 98.019155 
L 134.426181 97.505856 
L 134.386882 96.99241 
L 134.353643 96.478815 
L 134.326832 95.965066 
L 134.306448 95.451165 
L 134.292675 94.937108 
L 134.285145 94.422897 
L 134.284594 93.908523 
L 134.289553 93.394016 
L 134.297449 92.879442 
L 134.3081 92.364806 
L 134.321139 91.850106 
L 134.336932 91.335346 
L 134.355663 90.820517 
L 134.376782 90.305625 
L 134.400838 89.790667 
L 134.427834 89.275645 
L 134.457216 88.760554 
L 134.489537 88.245401 
L 134.524795 87.730178 
L 134.562809 87.214888 
L 134.603761 86.69953 
L 134.647467 86.184105 
L 134.694295 85.668611 
L 134.743694 85.15305 
L 134.796031 84.637418 
L 134.851674 84.121715 
L 134.910072 83.605943 
L 134.971408 83.090099 
L 135.035682 82.574185 
L 135.102894 82.058203 
L 135.173595 81.542144 
L 135.246867 81.026016 
" clip-path="url(#p4bddca65e8)" style="fill: none; stroke: #de8f05; stroke-width: 1.5; stroke-linecap: square"/>
   </g>
   <g id="line2d_7">
    <path d="M 114.882857 174.23905 
L 114.98239 173.874291 
L 115.081556 173.509532 
L 115.180538 173.144794 
L 115.278418 172.780066 
L 115.37593 172.41535 
L 115.472892 172.050648 
L 115.56912 171.685968 
L 115.664245 171.32131 
L 115.75882 170.956674 
L 115.852109 170.592055 
L 115.94448 170.227467 
L 116.035565 169.862906 
L 116.125548 169.498371 
L 116.21443 169.133867 
L 116.30221 168.769394 
L 116.38797 168.404956 
L 116.472444 168.040553 
L 116.555633 167.676185 
L 116.637169 167.311857 
L 116.716869 166.947573 
L 116.794732 166.58332 
L 116.870759 166.219124 
L 116.945133 165.854972 
L 117.017304 165.490865 
L 117.087821 165.12681 
L 117.155401 164.762803 
L 117.22096 164.398867 
L 117.283582 164.034979 
L 117.343815 163.671157 
L 117.401662 163.307401 
L 117.456754 162.943703 
L 117.509091 162.580079 
L 117.55849 162.216517 
L 117.605135 161.853026 
L 117.648841 161.489604 
L 117.689609 161.126254 
L 117.727439 160.762982 
L 117.76178 160.399772 
L 117.793549 160.036646 
L 117.821646 159.673595 
L 117.846438 159.310618 
L 117.868291 158.947725 
L 117.886655 158.584912 
L 117.901713 158.222186 
L 117.912915 157.859531 
L 117.920996 157.496973 
L 117.925219 157.134493 
L 117.92577 156.772111 
L 117.922832 156.409817 
L 117.91567 156.047606 
L 117.904284 155.68551 
L 117.887757 155.323533 
L 117.866638 154.96167 
L 117.840561 154.599926 
L 117.808975 154.238301 
L 117.772798 153.876804 
L 117.731296 153.51543 
L 117.683916 153.154183 
L 117.631763 152.793069 
L 117.5741 152.432082 
L 117.51056 152.071227 
L 117.441512 151.710518 
L 117.36677 151.34994 
L 117.286152 150.989508 
L 117.199474 150.629208 
L 117.107104 150.269062 
L 117.007938 149.909061 
L 116.90308 149.54921 
L 116.791978 149.189505 
L 116.674264 148.829957 
L 116.550307 148.470564 
L 116.41974 148.111325 
L 116.282377 147.752249 
L 116.138587 147.393331 
L 115.98892 147.03455 
L 115.836499 146.675839 
L 115.681691 146.317185 
L 115.524128 145.958602 
L 115.363443 145.600076 
L 115.200371 145.24162 
L 115.034728 144.883226 
L 114.866146 144.524903 
L 114.69481 144.166641 
L 114.52072 143.808449 
L 114.344058 143.450324 
L 114.164275 143.092265 
L 113.98192 142.734276 
L 113.796627 142.376353 
L 113.608397 142.018496 
L 113.417411 141.660714 
L 113.223304 141.302998 
L 113.026258 140.945352 
L 112.826642 140.587777 
L 112.623903 140.230272 
L 112.418043 139.872838 
L 112.209244 139.515479 
L 111.997691 139.15819 
L 111.782833 138.800975 
L 111.565219 138.443832 
" clip-path="url(#p4bddca65e8)" style="fill: none; stroke: #de8f05; stroke-width: 1.5; stroke-linecap: square"/>
   </g>
   <g id="line2d_8">
    <path d="M 70.567983 80.176696 
L 70.487182 80.661831 
L 70.407115 81.14696 
L 70.327415 81.632074 
L 70.248083 82.117177 
L 70.169485 82.602265 
L 70.091438 83.087338 
L 70.014309 83.572393 
L 69.937915 84.057428 
L 69.862439 84.542441 
L 69.788248 85.02743 
L 69.714609 85.512397 
L 69.642255 85.997336 
L 69.571186 86.482248 
L 69.501219 86.967129 
L 69.432721 87.45198 
L 69.365509 87.936796 
L 69.299583 88.421579 
L 69.235492 88.906325 
L 69.173055 89.391033 
L 69.11227 89.875699 
L 69.052771 90.360326 
L 68.995659 90.844908 
L 68.940383 91.329446 
L 68.88676 91.813938 
L 68.835525 92.298379 
L 68.786309 92.782768 
L 68.739665 93.267096 
L 68.695407 93.751367 
L 68.653721 94.235577 
L 68.614973 94.719726 
L 68.578429 95.203811 
L 68.54519 95.687829 
L 68.514155 96.171785 
L 68.486242 96.65567 
L 68.461267 97.139489 
L 68.43923 97.623237 
L 68.419948 98.106912 
L 68.403787 98.590518 
L 68.390932 99.074045 
L 68.3812 99.557499 
L 68.374588 100.040877 
L 68.371467 100.524177 
L 68.371467 101.007395 
L 68.375323 101.490532 
L 68.381934 101.97359 
L 68.392585 102.456562 
L 68.406725 102.93945 
L 68.424722 103.422251 
L 68.446208 103.904963 
L 68.471183 104.387585 
L 68.501116 104.870099 
L 68.535824 105.3525 
L 68.575123 105.834786 
L 68.619564 106.316955 
L 68.668963 106.799006 
L 68.723504 107.280931 
L 68.783187 107.762736 
L 68.848196 108.244415 
L 68.918713 108.725969 
L 68.994373 109.207392 
L 69.075726 109.688682 
L 69.162771 110.169838 
L 69.255693 110.650858 
L 69.354307 111.131742 
L 69.458615 111.612485 
L 69.568982 112.093087 
L 69.685594 112.573543 
L 69.808081 113.05385 
L 69.936997 113.534014 
L 70.072339 114.014026 
L 70.214109 114.493886 
L 70.362307 114.973589 
L 70.517115 115.453134 
L 70.678351 115.932524 
L 70.845647 116.411781 
L 71.015514 116.890972 
L 71.187951 117.370099 
L 71.36296 117.849166 
L 71.540907 118.328165 
L 71.721242 118.8071 
L 71.904514 119.285976 
L 72.090358 119.764785 
L 72.27914 120.243526 
L 72.470676 120.722206 
L 72.664783 121.200813 
L 72.861829 121.679358 
L 73.061629 122.157837 
L 73.264368 122.636246 
L 73.469677 123.114591 
L 73.678476 123.592866 
L 73.889661 124.071068 
L 74.103785 124.549206 
L 74.320848 125.027274 
L 74.540848 125.505273 
L 74.763971 125.9832 
L 74.990032 126.461058 
L 75.218847 126.93884 
L 75.450968 127.416553 
L 75.685843 127.894198 
" clip-path="url(#p4bddca65e8)" style="fill: none; stroke: #de8f05; stroke-width: 1.5; stroke-linecap: square"/>
   </g>
   <g id="line2d_9">
    <path d="M 154.391876 128.766966 
L 154.610224 129.103458 
L 154.828204 129.439958 
L 155.046001 129.776473 
L 155.263063 130.112997 
L 155.479391 130.449537 
L 155.695168 130.786094 
L 155.910027 131.122669 
L 156.124151 131.459259 
L 156.33754 131.795876 
L 156.550012 132.132517 
L 156.761198 132.469178 
L 156.971282 132.805867 
L 157.180264 133.142583 
L 157.387961 133.479333 
L 157.594739 133.816115 
L 157.799681 134.152928 
L 158.003154 134.489776 
L 158.205158 134.826661 
L 158.405509 135.163581 
L 158.604391 135.500548 
L 158.801437 135.837552 
L 158.996646 136.174602 
L 159.190019 136.511701 
L 159.381188 136.848839 
L 159.570704 137.186032 
L 159.757282 137.523279 
L 159.942208 137.860586 
L 160.124195 138.197951 
L 160.303611 138.535378 
L 160.480456 138.872871 
L 160.654547 139.210425 
L 160.826066 139.548041 
L 160.994648 139.885727 
L 161.160658 140.223484 
L 161.323547 140.561307 
L 161.483497 140.899205 
L 161.640693 141.237173 
L 161.794216 141.575211 
L 161.945168 141.913329 
L 162.092814 142.251522 
L 162.236972 142.589794 
L 162.378191 142.928145 
L 162.515553 143.266575 
L 162.649978 143.605085 
L 162.780729 143.943682 
L 162.908175 144.282364 
L 163.031765 144.621129 
L 163.152049 144.959982 
L 163.268293 145.298927 
L 163.380681 145.637956 
L 163.488845 145.977099 
L 163.591683 146.316366 
L 163.690114 146.655743 
L 163.783587 146.995239 
L 163.87155 147.334853 
L 163.954923 147.674591 
L 164.03297 148.014456 
L 164.105324 148.354449 
L 164.17272 148.69457 
L 164.234606 149.034823 
L 164.290616 149.375217 
L 164.341117 149.715734 
L 164.386109 150.056396 
L 164.424857 150.397199 
L 164.457912 150.738143 
L 164.485091 151.079232 
L 164.505842 151.420467 
L 164.520533 151.761851 
L 164.529165 152.103385 
L 164.531001 152.445072 
L 164.526777 152.786914 
L 164.515942 153.12891 
L 164.498129 153.471065 
L 164.474073 153.813391 
L 164.444323 154.155845 
L 164.411451 154.498365 
L 164.376193 154.840951 
L 164.338179 155.183603 
L 164.297411 155.526312 
L 164.253888 155.869092 
L 164.207978 156.211937 
L 164.158947 156.554854 
L 164.10716 156.897831 
L 164.052803 157.240879 
L 163.995507 157.583985 
L 163.935273 157.927169 
L 163.872285 158.270416 
L 163.806725 158.613737 
L 163.737677 158.957124 
L 163.666241 159.300581 
L 163.591867 159.644105 
L 163.514187 159.987703 
L 163.433753 160.331372 
L 163.350564 160.675112 
L 163.263886 161.018921 
L 163.174637 161.362806 
L 163.08245 161.706761 
L 162.986773 162.050791 
L 162.888342 162.394891 
" clip-path="url(#p4bddca65e8)" style="fill: none; stroke: #de8f05; stroke-width: 1.5; stroke-linecap: square"/>
   </g>
   <g id="line2d_10">
    <path d="M 178.622974 66.122379 
L 178.51426 67.025422 
L 178.406096 67.928387 
L 178.298299 68.831265 
L 178.191053 69.734065 
L 178.084359 70.636785 
L 177.978398 71.539423 
L 177.873356 72.441983 
L 177.769049 73.344456 
L 177.66566 74.246855 
L 177.563372 75.149168 
L 177.462003 76.051404 
L 177.361919 76.953556 
L 177.262754 77.855631 
L 177.165241 78.757623 
L 177.069014 79.659537 
L 176.974072 80.56137 
L 176.880599 81.463123 
L 176.788596 82.364795 
L 176.698429 83.266389 
L 176.610098 84.167899 
L 176.52342 85.069335 
L 176.438578 85.970686 
L 176.355573 86.87196 
L 176.274588 87.773153 
L 176.195806 88.674266 
L 176.119045 89.575333 
L 176.045405 90.476357 
L 175.973786 91.377338 
L 175.904921 92.278278 
L 175.838259 93.17917 
L 175.77472 94.080014 
L 175.714119 94.980806 
L 175.655721 95.881547 
L 175.600813 96.78223 
L 175.548659 97.682856 
L 175.499444 98.583427 
L 175.452983 99.48393 
L 175.409827 100.384377 
L 175.370161 101.284753 
L 175.33325 102.185064 
L 175.299827 103.085303 
L 175.269894 103.985471 
L 175.242899 104.885564 
L 175.21976 105.785582 
L 175.199927 106.685522 
L 175.183767 107.585379 
L 175.171096 108.485155 
L 175.162281 109.384849 
L 175.157323 110.284451 
L 175.15567 111.183973 
L 175.159159 112.083448 
L 175.167239 112.982884 
L 175.180461 113.882276 
L 175.198642 114.781627 
L 175.221597 115.680939 
L 175.250061 116.580201 
L 175.2833 117.479427 
L 175.322231 118.378609 
L 175.366305 119.277746 
L 175.416255 120.176845 
L 175.471714 121.075894 
L 175.532683 121.974901 
L 175.599527 122.873861 
L 175.672065 123.772782 
L 175.750663 124.671653 
L 175.835321 125.570482 
L 175.926223 126.469264 
L 176.023185 127.367996 
L 176.126758 128.266686 
L 176.236574 129.165327 
L 176.352451 130.063925 
L 176.475306 130.962474 
L 176.604772 131.860974 
L 176.741033 132.759424 
L 176.882803 133.657844 
L 177.027511 134.556267 
L 177.17479 135.454698 
L 177.324641 136.353137 
L 177.477245 137.251571 
L 177.632605 138.15003 
L 177.790719 139.048489 
L 177.951403 139.946957 
L 178.11521 140.845437 
L 178.281404 141.743927 
L 178.450353 142.642425 
L 178.622424 143.540937 
L 178.797065 144.439466 
L 178.974828 145.338 
L 179.155346 146.236547 
L 179.338619 147.135116 
L 179.524646 148.033689 
L 179.713979 148.932284 
L 179.90625 149.830893 
L 180.101092 150.729515 
L 180.299239 151.628158 
L 180.499958 152.52682 
L 180.704165 153.425494 
L 180.911127 154.324186 
L 181.121211 155.222901 
" clip-path="url(#p4bddca65e8)" style="fill: none; stroke: #de8f05; stroke-width: 1.5; stroke-linecap: square"/>
   </g>
   <g id="line2d_11">
    <path d="M 105.623551 96.44732 
L 105.553401 96.874576 
L 105.483801 97.301821 
L 105.414936 97.729054 
L 105.346438 98.156273 
L 105.278308 98.583476 
L 105.211279 99.010662 
L 105.144802 99.437829 
L 105.079059 99.864975 
L 105.014417 100.2921 
L 104.950694 100.7192 
L 104.888441 101.146275 
L 104.826738 101.573324 
L 104.766136 102.000343 
L 104.707188 102.427333 
L 104.649525 102.854291 
L 104.593148 103.281215 
L 104.538239 103.708104 
L 104.484984 104.134957 
L 104.433197 104.561771 
L 104.383247 104.988545 
L 104.334766 105.415278 
L 104.288305 105.841967 
L 104.243497 106.268612 
L 104.200893 106.695211 
L 104.160676 107.121761 
L 104.121928 107.548258 
L 104.086118 107.974698 
L 104.052512 108.401081 
L 104.02166 108.827405 
L 103.993012 109.25367 
L 103.967119 109.679872 
L 103.944348 110.10601 
L 103.92378 110.532087 
L 103.906151 110.958095 
L 103.891276 111.384037 
L 103.879707 111.809911 
L 103.870708 112.235717 
L 103.864648 112.661451 
L 103.862261 113.087112 
L 103.862445 113.512698 
L 103.866117 113.93821 
L 103.872728 114.363647 
L 103.882645 114.789006 
L 103.896234 115.214285 
L 103.912945 115.639485 
L 103.933513 116.064602 
L 103.95757 116.489636 
L 103.984932 116.914588 
L 104.015967 117.339452 
L 104.050859 117.764225 
L 104.090158 118.188896 
L 104.134048 118.613462 
L 104.182896 119.037916 
L 104.236335 119.462256 
L 104.294733 119.886486 
L 104.358089 120.310595 
L 104.426586 120.734589 
L 104.500042 121.158464 
L 104.579007 121.582217 
L 104.663298 122.005848 
L 104.752731 122.429351 
L 104.847856 122.852725 
L 104.948491 123.275968 
L 105.054635 123.699087 
L 105.166655 124.122064 
L 105.284552 124.544912 
L 105.408325 124.96762 
L 105.538342 125.390186 
L 105.674236 125.812613 
L 105.816006 126.234897 
L 105.964387 126.657036 
L 106.119011 127.079025 
L 106.280247 127.500867 
L 106.447727 127.922559 
L 106.620899 128.344121 
L 106.796459 128.765628 
L 106.97459 129.187076 
L 107.155291 129.608466 
L 107.33838 130.029795 
L 107.524407 130.451073 
L 107.712822 130.87229 
L 107.903624 131.293449 
L 108.097547 131.714547 
L 108.293858 132.135585 
L 108.492924 132.556564 
L 108.694377 132.977486 
L 108.898585 133.398343 
L 109.10573 133.819144 
L 109.315447 134.239883 
L 109.527918 134.66056 
L 109.743144 135.081171 
L 109.960941 135.501725 
L 110.181676 135.922218 
L 110.405166 136.342644 
L 110.631411 136.763009 
L 110.860777 137.183316 
L 111.092714 137.603547 
L 111.327406 138.023725 
L 111.565219 138.443832 
" clip-path="url(#p4bddca65e8)" style="fill: none; stroke: #de8f05; stroke-width: 1.5; stroke-linecap: square"/>
   </g>
   <g id="patch_3">
    <path d="M 27 192.24 
L 27 25.92 
" style="fill: none; stroke: #000000; stroke-width: 0.8; stroke-linejoin: miter; stroke-linecap: square"/>
   </g>
   <g id="patch_4">
    <path d="M 194.4 192.24 
L 194.4 25.92 
" style="fill: none; stroke: #000000; stroke-width: 0.8; stroke-linejoin: miter; stroke-linecap: square"/>
   </g>
   <g id="patch_5">
    <path d="M 27 192.24 
L 194.4 192.24 
" style="fill: none; stroke: #000000; stroke-width: 0.8; stroke-linejoin: miter; stroke-linecap: square"/>
   </g>
   <g id="patch_6">
    <path d="M 27 25.92 
L 194.4 25.92 
" style="fill: none; stroke: #000000; stroke-width: 0.8; stroke-linejoin: miter; stroke-linecap: square"/>
   </g>
   <g id="text_3">
    <!-- Geodesics NB-VAE -->
    <g transform="translate(19.579687 19.92) scale(0.2 -0.2)">
     <defs>
      <path id="DejaVuSans-47" d="M 3809 666 
L 3809 1919 
L 2778 1919 
L 2778 2438 
L 4434 2438 
L 4434 434 
Q 4069 175 3628 42 
Q 3188 -91 2688 -91 
Q 1594 -91 976 548 
Q 359 1188 359 2328 
Q 359 3472 976 4111 
Q 1594 4750 2688 4750 
Q 3144 4750 3555 4637 
Q 3966 4525 4313 4306 
L 4313 3634 
Q 3963 3931 3569 4081 
Q 3175 4231 2741 4231 
Q 1884 4231 1454 3753 
Q 1025 3275 1025 2328 
Q 1025 1384 1454 906 
Q 1884 428 2741 428 
Q 3075 428 3337 486 
Q 3600 544 3809 666 
z
" transform="scale(0.015625)"/>
      <path id="DejaVuSans-6f" d="M 1959 3097 
Q 1497 3097 1228 2736 
Q 959 2375 959 1747 
Q 959 1119 1226 758 
Q 1494 397 1959 397 
Q 2419 397 2687 759 
Q 2956 1122 2956 1747 
Q 2956 2369 2687 2733 
Q 2419 3097 1959 3097 
z
M 1959 3584 
Q 2709 3584 3137 3096 
Q 3566 2609 3566 1747 
Q 3566 888 3137 398 
Q 2709 -91 1959 -91 
Q 1206 -91 779 398 
Q 353 888 353 1747 
Q 353 2609 779 3096 
Q 1206 3584 1959 3584 
z
" transform="scale(0.015625)"/>
      <path id="DejaVuSans-64" d="M 2906 2969 
L 2906 4863 
L 3481 4863 
L 3481 0 
L 2906 0 
L 2906 525 
Q 2725 213 2448 61 
Q 2172 -91 1784 -91 
Q 1150 -91 751 415 
Q 353 922 353 1747 
Q 353 2572 751 3078 
Q 1150 3584 1784 3584 
Q 2172 3584 2448 3432 
Q 2725 3281 2906 2969 
z
M 947 1747 
Q 947 1113 1208 752 
Q 1469 391 1925 391 
Q 2381 391 2643 752 
Q 2906 1113 2906 1747 
Q 2906 2381 2643 2742 
Q 2381 3103 1925 3103 
Q 1469 3103 1208 2742 
Q 947 2381 947 1747 
z
" transform="scale(0.015625)"/>
      <path id="DejaVuSans-73" d="M 2834 3397 
L 2834 2853 
Q 2591 2978 2328 3040 
Q 2066 3103 1784 3103 
Q 1356 3103 1142 2972 
Q 928 2841 928 2578 
Q 928 2378 1081 2264 
Q 1234 2150 1697 2047 
L 1894 2003 
Q 2506 1872 2764 1633 
Q 3022 1394 3022 966 
Q 3022 478 2636 193 
Q 2250 -91 1575 -91 
Q 1294 -91 989 -36 
Q 684 19 347 128 
L 347 722 
Q 666 556 975 473 
Q 1284 391 1588 391 
Q 1994 391 2212 530 
Q 2431 669 2431 922 
Q 2431 1156 2273 1281 
Q 2116 1406 1581 1522 
L 1381 1569 
Q 847 1681 609 1914 
Q 372 2147 372 2553 
Q 372 3047 722 3315 
Q 1072 3584 1716 3584 
Q 2034 3584 2315 3537 
Q 2597 3491 2834 3397 
z
" transform="scale(0.015625)"/>
      <path id="DejaVuSans-69" d="M 603 3500 
L 1178 3500 
L 1178 0 
L 603 0 
L 603 3500 
z
M 603 4863 
L 1178 4863 
L 1178 4134 
L 603 4134 
L 603 4863 
z
" transform="scale(0.015625)"/>
      <path id="DejaVuSans-63" d="M 3122 3366 
L 3122 2828 
Q 2878 2963 2633 3030 
Q 2388 3097 2138 3097 
Q 1578 3097 1268 2742 
Q 959 2388 959 1747 
Q 959 1106 1268 751 
Q 1578 397 2138 397 
Q 2388 397 2633 464 
Q 2878 531 3122 666 
L 3122 134 
Q 2881 22 2623 -34 
Q 2366 -91 2075 -91 
Q 1284 -91 818 406 
Q 353 903 353 1747 
Q 353 2603 823 3093 
Q 1294 3584 2113 3584 
Q 2378 3584 2631 3529 
Q 2884 3475 3122 3366 
z
" transform="scale(0.015625)"/>
      <path id="DejaVuSans-4e" d="M 628 4666 
L 1478 4666 
L 3547 763 
L 3547 4666 
L 4159 4666 
L 4159 0 
L 3309 0 
L 1241 3903 
L 1241 0 
L 628 0 
L 628 4666 
z
" transform="scale(0.015625)"/>
      <path id="DejaVuSans-42" d="M 1259 2228 
L 1259 519 
L 2272 519 
Q 2781 519 3026 730 
Q 3272 941 3272 1375 
Q 3272 1813 3026 2020 
Q 2781 2228 2272 2228 
L 1259 2228 
z
M 1259 4147 
L 1259 2741 
L 2194 2741 
Q 2656 2741 2882 2914 
Q 3109 3088 3109 3444 
Q 3109 3797 2882 3972 
Q 2656 4147 2194 4147 
L 1259 4147 
z
M 628 4666 
L 2241 4666 
Q 2963 4666 3353 4366 
Q 3744 4066 3744 3513 
Q 3744 3084 3544 2831 
Q 3344 2578 2956 2516 
Q 3422 2416 3680 2098 
Q 3938 1781 3938 1306 
Q 3938 681 3513 340 
Q 3088 0 2303 0 
L 628 0 
L 628 4666 
z
" transform="scale(0.015625)"/>
      <path id="DejaVuSans-2d" d="M 313 2009 
L 1997 2009 
L 1997 1497 
L 313 1497 
L 313 2009 
z
" transform="scale(0.015625)"/>
      <path id="DejaVuSans-56" d="M 1831 0 
L 50 4666 
L 709 4666 
L 2188 738 
L 3669 4666 
L 4325 4666 
L 2547 0 
L 1831 0 
z
" transform="scale(0.015625)"/>
      <path id="DejaVuSans-41" d="M 2188 4044 
L 1331 1722 
L 3047 1722 
L 2188 4044 
z
M 1831 4666 
L 2547 4666 
L 4325 0 
L 3669 0 
L 3244 1197 
L 1141 1197 
L 716 0 
L 50 0 
L 1831 4666 
z
" transform="scale(0.015625)"/>
      <path id="DejaVuSans-45" d="M 628 4666 
L 3578 4666 
L 3578 4134 
L 1259 4134 
L 1259 2753 
L 3481 2753 
L 3481 2222 
L 1259 2222 
L 1259 531 
L 3634 531 
L 3634 0 
L 628 0 
L 628 4666 
z
" transform="scale(0.015625)"/>
     </defs>
     <use xlink:href="#DejaVuSans-47"/>
     <use xlink:href="#DejaVuSans-65" x="77.490234"/>
     <use xlink:href="#DejaVuSans-6f" x="139.013672"/>
     <use xlink:href="#DejaVuSans-64" x="200.195312"/>
     <use xlink:href="#DejaVuSans-65" x="263.671875"/>
     <use xlink:href="#DejaVuSans-73" x="325.195312"/>
     <use xlink:href="#DejaVuSans-69" x="377.294922"/>
     <use xlink:href="#DejaVuSans-63" x="405.078125"/>
     <use xlink:href="#DejaVuSans-73" x="460.058594"/>
     <use xlink:href="#DejaVuSans-20" x="512.158203"/>
     <use xlink:href="#DejaVuSans-4e" x="543.945312"/>
     <use xlink:href="#DejaVuSans-42" x="618.75"/>
     <use xlink:href="#DejaVuSans-2d" x="687.353516"/>
     <use xlink:href="#DejaVuSans-56" x="717.5625"/>
     <use xlink:href="#DejaVuSans-41" x="779.595703"/>
     <use xlink:href="#DejaVuSans-45" x="848.003906"/>
    </g>
   </g>
  </g>
 </g>
 <defs>
  <clipPath id="p4bddca65e8">
   <rect x="27" y="25.92" width="167.4" height="166.32"/>
  </clipPath>
 </defs>
</svg>
