<?xml version="1.0" encoding="utf-8" standalone="no"?>
<!DOCTYPE svg PUBLIC "-//W3C//DTD SVG 1.1//EN"
  "http://www.w3.org/Graphics/SVG/1.1/DTD/svg11.dtd">
<svg xmlns:xlink="http://www.w3.org/1999/xlink" width="216pt" height="216pt" viewBox="0 0 216 216" xmlns="http://www.w3.org/2000/svg" version="1.1">
 <metadata>
  <rdf:RDF xmlns:dc="http://purl.org/dc/elements/1.1/" xmlns:cc="http://creativecommons.org/ns#" xmlns:rdf="http://www.w3.org/1999/02/22-rdf-syntax-ns#">
   <cc:Work>
    <dc:type rdf:resource="http://purl.org/dc/dcmitype/StillImage"/>
    <dc:date>2024-11-18T21:32:38.249490</dc:date>
    <dc:format>image/svg+xml</dc:format>
    <dc:creator>
     <cc:Agent>
      <dc:title>Matplotlib v3.8.1, https://matplotlib.org/</dc:title>
     </cc:Agent>
    </dc:creator>
   </cc:Work>
  </rdf:RDF>
 </metadata>
 <defs>
  <style type="text/css">*{stroke-linejoin: round; stroke-linecap: butt}</style>
 </defs>
 <g id="figure_1">
  <g id="patch_1">
   <path d="M 0 216 
L 216 216 
L 216 0 
L 0 0 
z
" style="fill: #ffffff"/>
  </g>
  <g id="axes_1">
   <g id="patch_2">
    <path d="M 27 192.24 
L 194.4 192.24 
L 194.4 25.92 
L 27 25.92 
z
" style="fill: #ffffff"/>
   </g>
   <g id="PathCollection_1">
    <defs>
     <path id="m5e0286612b" d="M 0 3 
C 0.795609 3 1.55874 2.683901 2.12132 2.12132 
C 2.683901 1.55874 3 0.795609 3 0 
C 3 -0.795609 2.683901 -1.55874 2.12132 -2.12132 
C 1.55874 -2.683901 0.795609 -3 0 -3 
C -0.795609 -3 -1.55874 -2.683901 -2.12132 -2.12132 
C -2.683901 -1.55874 -3 -0.795609 -3 0 
C -3 0.795609 -2.683901 1.55874 -2.12132 2.12132 
C -1.55874 2.683901 -0.795609 3 0 3 
z
" style="stroke: #dcdcdc"/>
    </defs>
    <g clip-path="url(#p6f0f5dea3f)">
     <use xlink:href="#m5e0286612b" x="53.447794" y="106.2803" style="fill: #dcdcdc; stroke: #dcdcdc"/>
     <use xlink:href="#m5e0286612b" x="114.633774" y="114.724308" style="fill: #dcdcdc; stroke: #dcdcdc"/>
     <use xlink:href="#m5e0286612b" x="186.790909" y="181.53437" style="fill: #dcdcdc; stroke: #dcdcdc"/>
     <use xlink:href="#m5e0286612b" x="93.179861" y="33.480002" style="fill: #dcdcdc; stroke: #dcdcdc"/>
     <use xlink:href="#m5e0286612b" x="173.255333" y="178.729255" style="fill: #dcdcdc; stroke: #dcdcdc"/>
     <use xlink:href="#m5e0286612b" x="90.403177" y="184.679997" style="fill: #dcdcdc; stroke: #dcdcdc"/>
     <use xlink:href="#m5e0286612b" x="91.965494" y="154.246177" style="fill: #dcdcdc; stroke: #dcdcdc"/>
     <use xlink:href="#m5e0286612b" x="182.737506" y="158.758207" style="fill: #dcdcdc; stroke: #dcdcdc"/>
     <use xlink:href="#m5e0286612b" x="110.278794" y="77.138454" style="fill: #dcdcdc; stroke: #dcdcdc"/>
     <use xlink:href="#m5e0286612b" x="70.923124" y="109.606221" style="fill: #dcdcdc; stroke: #dcdcdc"/>
     <use xlink:href="#m5e0286612b" x="81.570899" y="91.020499" style="fill: #dcdcdc; stroke: #dcdcdc"/>
     <use xlink:href="#m5e0286612b" x="115.469093" y="66.234719" style="fill: #dcdcdc; stroke: #dcdcdc"/>
     <use xlink:href="#m5e0286612b" x="35.327932" y="63.747753" style="fill: #dcdcdc; stroke: #dcdcdc"/>
     <use xlink:href="#m5e0286612b" x="34.609091" y="104.960952" style="fill: #dcdcdc; stroke: #dcdcdc"/>
     <use xlink:href="#m5e0286612b" x="185.770591" y="180.784517" style="fill: #dcdcdc; stroke: #dcdcdc"/>
     <use xlink:href="#m5e0286612b" x="149.742997" y="70.935755" style="fill: #dcdcdc; stroke: #dcdcdc"/>
     <use xlink:href="#m5e0286612b" x="53.447095" y="39.786551" style="fill: #dcdcdc; stroke: #dcdcdc"/>
     <use xlink:href="#m5e0286612b" x="124.761838" y="92.329116" style="fill: #dcdcdc; stroke: #dcdcdc"/>
     <use xlink:href="#m5e0286612b" x="93.22955" y="180.456302" style="fill: #dcdcdc; stroke: #dcdcdc"/>
     <use xlink:href="#m5e0286612b" x="153.678318" y="85.936663" style="fill: #dcdcdc; stroke: #dcdcdc"/>
     <use xlink:href="#m5e0286612b" x="93.423992" y="107.325965" style="fill: #dcdcdc; stroke: #dcdcdc"/>
     <use xlink:href="#m5e0286612b" x="48.228817" y="143.018152" style="fill: #dcdcdc; stroke: #dcdcdc"/>
     <use xlink:href="#m5e0286612b" x="115.660455" y="180.002627" style="fill: #dcdcdc; stroke: #dcdcdc"/>
     <use xlink:href="#m5e0286612b" x="136.527164" y="99.277279" style="fill: #dcdcdc; stroke: #dcdcdc"/>
    </g>
   </g>
   <g id="PathCollection_2">
    <defs>
     <path id="md8bec2df43" d="M 0 3 
C 0.795609 3 1.55874 2.683901 2.12132 2.12132 
C 2.683901 1.55874 3 0.795609 3 0 
C 3 -0.795609 2.683901 -1.55874 2.12132 -2.12132 
C 1.55874 -2.683901 0.795609 -3 0 -3 
C -0.795609 -3 -1.55874 -2.683901 -2.12132 -2.12132 
C -2.683901 -1.55874 -3 -0.795609 -3 0 
C -3 0.795609 -2.683901 1.55874 -2.12132 2.12132 
C -1.55874 2.683901 -0.795609 3 0 3 
z
" style="stroke: #56b4e9"/>
    </defs>
    <g clip-path="url(#p6f0f5dea3f)">
     <use xlink:href="#md8bec2df43" x="90.403177" y="184.679997" style="fill: #56b4e9; stroke: #56b4e9"/>
    </g>
   </g>
   <g id="PathCollection_3">
    <g clip-path="url(#p6f0f5dea3f)">
     <use xlink:href="#md8bec2df43" x="173.255333" y="178.729255" style="fill: #56b4e9; stroke: #56b4e9"/>
    </g>
   </g>
   <g id="PathCollection_4">
    <g clip-path="url(#p6f0f5dea3f)">
     <use xlink:href="#md8bec2df43" x="90.403177" y="184.679997" style="fill: #56b4e9; stroke: #56b4e9"/>
    </g>
   </g>
   <g id="PathCollection_5">
    <g clip-path="url(#p6f0f5dea3f)">
     <use xlink:href="#md8bec2df43" x="173.255333" y="178.729255" style="fill: #56b4e9; stroke: #56b4e9"/>
    </g>
   </g>
   <g id="PathCollection_6">
    <g clip-path="url(#p6f0f5dea3f)">
     <use xlink:href="#md8bec2df43" x="48.228817" y="143.018152" style="fill: #56b4e9; stroke: #56b4e9"/>
    </g>
   </g>
   <g id="PathCollection_7">
    <g clip-path="url(#p6f0f5dea3f)">
     <use xlink:href="#md8bec2df43" x="115.660455" y="180.002627" style="fill: #56b4e9; stroke: #56b4e9"/>
    </g>
   </g>
   <g id="PathCollection_8">
    <g clip-path="url(#p6f0f5dea3f)">
     <use xlink:href="#md8bec2df43" x="93.179861" y="33.480002" style="fill: #56b4e9; stroke: #56b4e9"/>
    </g>
   </g>
   <g id="PathCollection_9">
    <g clip-path="url(#p6f0f5dea3f)">
     <use xlink:href="#md8bec2df43" x="93.423992" y="107.325965" style="fill: #56b4e9; stroke: #56b4e9"/>
    </g>
   </g>
   <g id="PathCollection_10">
    <g clip-path="url(#p6f0f5dea3f)">
     <use xlink:href="#md8bec2df43" x="53.447794" y="106.2803" style="fill: #56b4e9; stroke: #56b4e9"/>
    </g>
   </g>
   <g id="PathCollection_11">
    <g clip-path="url(#p6f0f5dea3f)">
     <use xlink:href="#md8bec2df43" x="70.923124" y="109.606221" style="fill: #56b4e9; stroke: #56b4e9"/>
    </g>
   </g>
   <g id="PathCollection_12">
    <g clip-path="url(#p6f0f5dea3f)">
     <use xlink:href="#md8bec2df43" x="90.403177" y="184.679997" style="fill: #56b4e9; stroke: #56b4e9"/>
    </g>
   </g>
   <g id="PathCollection_13">
    <g clip-path="url(#p6f0f5dea3f)">
     <use xlink:href="#md8bec2df43" x="186.790909" y="181.53437" style="fill: #56b4e9; stroke: #56b4e9"/>
    </g>
   </g>
   <g id="PathCollection_14">
    <g clip-path="url(#p6f0f5dea3f)">
     <use xlink:href="#md8bec2df43" x="115.660455" y="180.002627" style="fill: #56b4e9; stroke: #56b4e9"/>
    </g>
   </g>
   <g id="PathCollection_15">
    <g clip-path="url(#p6f0f5dea3f)">
     <use xlink:href="#md8bec2df43" x="149.742997" y="70.935755" style="fill: #56b4e9; stroke: #56b4e9"/>
    </g>
   </g>
   <g id="PathCollection_16">
    <g clip-path="url(#p6f0f5dea3f)">
     <use xlink:href="#md8bec2df43" x="70.923124" y="109.606221" style="fill: #56b4e9; stroke: #56b4e9"/>
    </g>
   </g>
   <g id="PathCollection_17">
    <g clip-path="url(#p6f0f5dea3f)">
     <use xlink:href="#md8bec2df43" x="93.179861" y="33.480002" style="fill: #56b4e9; stroke: #56b4e9"/>
    </g>
   </g>
   <g id="PathCollection_18">
    <g clip-path="url(#p6f0f5dea3f)">
     <use xlink:href="#md8bec2df43" x="91.965494" y="154.246177" style="fill: #56b4e9; stroke: #56b4e9"/>
    </g>
   </g>
   <g id="PathCollection_19">
    <g clip-path="url(#p6f0f5dea3f)">
     <use xlink:href="#md8bec2df43" x="185.770591" y="180.784517" style="fill: #56b4e9; stroke: #56b4e9"/>
    </g>
   </g>
   <g id="PathCollection_20">
    <g clip-path="url(#p6f0f5dea3f)">
     <use xlink:href="#md8bec2df43" x="114.633774" y="114.724308" style="fill: #56b4e9; stroke: #56b4e9"/>
    </g>
   </g>
   <g id="PathCollection_21">
    <g clip-path="url(#p6f0f5dea3f)">
     <use xlink:href="#md8bec2df43" x="115.469093" y="66.234719" style="fill: #56b4e9; stroke: #56b4e9"/>
    </g>
   </g>
   <g id="PathCollection_22">
    <g clip-path="url(#p6f0f5dea3f)">
     <use xlink:href="#md8bec2df43" x="182.737506" y="158.758207" style="fill: #56b4e9; stroke: #56b4e9"/>
    </g>
   </g>
   <g id="PathCollection_23">
    <g clip-path="url(#p6f0f5dea3f)">
     <use xlink:href="#md8bec2df43" x="149.742997" y="70.935755" style="fill: #56b4e9; stroke: #56b4e9"/>
    </g>
   </g>
   <g id="matplotlib.axis_1">
    <g id="text_1">
     <!-- Latent 1 -->
     <g transform="translate(69.128125 211.436875) scale(0.2 -0.2)">
      <defs>
       <path id="DejaVuSans-4c" d="M 628 4666 
L 1259 4666 
L 1259 531 
L 3531 531 
L 3531 0 
L 628 0 
L 628 4666 
z
" transform="scale(0.015625)"/>
       <path id="DejaVuSans-61" d="M 2194 1759 
Q 1497 1759 1228 1600 
Q 959 1441 959 1056 
Q 959 750 1161 570 
Q 1363 391 1709 391 
Q 2188 391 2477 730 
Q 2766 1069 2766 1631 
L 2766 1759 
L 2194 1759 
z
M 3341 1997 
L 3341 0 
L 2766 0 
L 2766 531 
Q 2569 213 2275 61 
Q 1981 -91 1556 -91 
Q 1019 -91 701 211 
Q 384 513 384 1019 
Q 384 1609 779 1909 
Q 1175 2209 1959 2209 
L 2766 2209 
L 2766 2266 
Q 2766 2663 2505 2880 
Q 2244 3097 1772 3097 
Q 1472 3097 1187 3025 
Q 903 2953 641 2809 
L 641 3341 
Q 956 3463 1253 3523 
Q 1550 3584 1831 3584 
Q 2591 3584 2966 3190 
Q 3341 2797 3341 1997 
z
" transform="scale(0.015625)"/>
       <path id="DejaVuSans-74" d="M 1172 4494 
L 1172 3500 
L 2356 3500 
L 2356 3053 
L 1172 3053 
L 1172 1153 
Q 1172 725 1289 603 
Q 1406 481 1766 481 
L 2356 481 
L 2356 0 
L 1766 0 
Q 1100 0 847 248 
Q 594 497 594 1153 
L 594 3053 
L 172 3053 
L 172 3500 
L 594 3500 
L 594 4494 
L 1172 4494 
z
" transform="scale(0.015625)"/>
       <path id="DejaVuSans-65" d="M 3597 1894 
L 3597 1613 
L 953 1613 
Q 991 1019 1311 708 
Q 1631 397 2203 397 
Q 2534 397 2845 478 
Q 3156 559 3463 722 
L 3463 178 
Q 3153 47 2828 -22 
Q 2503 -91 2169 -91 
Q 1331 -91 842 396 
Q 353 884 353 1716 
Q 353 2575 817 3079 
Q 1281 3584 2069 3584 
Q 2775 3584 3186 3129 
Q 3597 2675 3597 1894 
z
M 3022 2063 
Q 3016 2534 2758 2815 
Q 2500 3097 2075 3097 
Q 1594 3097 1305 2825 
Q 1016 2553 972 2059 
L 3022 2063 
z
" transform="scale(0.015625)"/>
       <path id="DejaVuSans-6e" d="M 3513 2113 
L 3513 0 
L 2938 0 
L 2938 2094 
Q 2938 2591 2744 2837 
Q 2550 3084 2163 3084 
Q 1697 3084 1428 2787 
Q 1159 2491 1159 1978 
L 1159 0 
L 581 0 
L 581 3500 
L 1159 3500 
L 1159 2956 
Q 1366 3272 1645 3428 
Q 1925 3584 2291 3584 
Q 2894 3584 3203 3211 
Q 3513 2838 3513 2113 
z
" transform="scale(0.015625)"/>
       <path id="DejaVuSans-20" transform="scale(0.015625)"/>
       <path id="DejaVuSans-31" d="M 794 531 
L 1825 531 
L 1825 4091 
L 703 3866 
L 703 4441 
L 1819 4666 
L 2450 4666 
L 2450 531 
L 3481 531 
L 3481 0 
L 794 0 
L 794 531 
z
" transform="scale(0.015625)"/>
      </defs>
      <use xlink:href="#DejaVuSans-4c"/>
      <use xlink:href="#DejaVuSans-61" x="55.712891"/>
      <use xlink:href="#DejaVuSans-74" x="116.992188"/>
      <use xlink:href="#DejaVuSans-65" x="156.201172"/>
      <use xlink:href="#DejaVuSans-6e" x="217.724609"/>
      <use xlink:href="#DejaVuSans-74" x="281.103516"/>
      <use xlink:href="#DejaVuSans-20" x="320.3125"/>
      <use xlink:href="#DejaVuSans-31" x="352.099609"/>
     </g>
    </g>
   </g>
   <g id="matplotlib.axis_2">
    <g id="text_2">
     <!-- Latent 2 -->
     <g transform="translate(18.840625 150.651875) rotate(-90) scale(0.2 -0.2)">
      <defs>
       <path id="DejaVuSans-32" d="M 1228 531 
L 3431 531 
L 3431 0 
L 469 0 
L 469 531 
Q 828 903 1448 1529 
Q 2069 2156 2228 2338 
Q 2531 2678 2651 2914 
Q 2772 3150 2772 3378 
Q 2772 3750 2511 3984 
Q 2250 4219 1831 4219 
Q 1534 4219 1204 4116 
Q 875 4013 500 3803 
L 500 4441 
Q 881 4594 1212 4672 
Q 1544 4750 1819 4750 
Q 2544 4750 2975 4387 
Q 3406 4025 3406 3419 
Q 3406 3131 3298 2873 
Q 3191 2616 2906 2266 
Q 2828 2175 2409 1742 
Q 1991 1309 1228 531 
z
" transform="scale(0.015625)"/>
      </defs>
      <use xlink:href="#DejaVuSans-4c"/>
      <use xlink:href="#DejaVuSans-61" x="55.712891"/>
      <use xlink:href="#DejaVuSans-74" x="116.992188"/>
      <use xlink:href="#DejaVuSans-65" x="156.201172"/>
      <use xlink:href="#DejaVuSans-6e" x="217.724609"/>
      <use xlink:href="#DejaVuSans-74" x="281.103516"/>
      <use xlink:href="#DejaVuSans-20" x="320.3125"/>
      <use xlink:href="#DejaVuSans-32" x="352.099609"/>
     </g>
    </g>
   </g>
   <g id="line2d_1">
    <path d="M 90.403177 184.68 
L 99.608973 184.018806 
L 108.814768 183.357612 
L 118.020564 182.696418 
L 127.226359 182.035224 
L 136.432154 181.374031 
L 145.637952 180.712837 
L 154.843745 180.051643 
L 164.049539 179.390449 
L 173.255336 178.729255 
" clip-path="url(#p6f0f5dea3f)" style="fill: none; stroke: #56b4e9; stroke-width: 1.5; stroke-linecap: square"/>
   </g>
   <g id="line2d_2">
    <path d="M 90.403177 184.68 
L 99.608973 184.018806 
L 108.814768 183.357612 
L 118.020564 182.696418 
L 127.226359 182.035224 
L 136.432154 181.374031 
L 145.637952 180.712837 
L 154.843745 180.051643 
L 164.049539 179.390449 
L 173.255336 178.729255 
" clip-path="url(#p6f0f5dea3f)" style="fill: none; stroke: #56b4e9; stroke-width: 1.5; stroke-linecap: square"/>
   </g>
   <g id="line2d_3">
    <path d="M 48.228817 143.018154 
L 55.721222 147.127539 
L 63.213624 151.236929 
L 70.706029 155.346314 
L 78.198435 159.4557 
L 85.690837 163.565085 
L 93.183242 167.674471 
L 100.675647 171.78386 
L 108.168051 175.893242 
L 115.660456 180.002631 
" clip-path="url(#p6f0f5dea3f)" style="fill: none; stroke: #56b4e9; stroke-width: 1.5; stroke-linecap: square"/>
   </g>
   <g id="line2d_4">
    <path d="M 93.179861 33.48 
L 93.206986 41.68511 
L 93.234113 49.890216 
L 93.261238 58.095321 
L 93.288364 66.300431 
L 93.31549 74.505535 
L 93.342616 82.710642 
L 93.369741 90.91575 
L 93.396868 99.120857 
L 93.423993 107.325965 
" clip-path="url(#p6f0f5dea3f)" style="fill: none; stroke: #56b4e9; stroke-width: 1.5; stroke-linecap: square"/>
   </g>
   <g id="line2d_5">
    <path d="M 53.447793 106.280301 
L 55.389496 106.649847 
L 57.331199 107.019394 
L 59.272902 107.388941 
L 61.214605 107.758487 
L 63.156308 108.128034 
L 65.098015 108.497581 
L 67.039718 108.867127 
L 68.981421 109.236674 
L 70.923124 109.606221 
" clip-path="url(#p6f0f5dea3f)" style="fill: none; stroke: #56b4e9; stroke-width: 1.5; stroke-linecap: square"/>
   </g>
   <g id="line2d_6">
    <path d="M 90.403177 184.68 
L 101.112926 184.330488 
L 111.822674 183.980968 
L 122.532422 183.631456 
L 133.242171 183.281944 
L 143.951915 182.932424 
L 154.661662 182.582912 
L 165.371412 182.2334 
L 176.081162 181.88388 
L 186.790908 181.534368 
" clip-path="url(#p6f0f5dea3f)" style="fill: none; stroke: #56b4e9; stroke-width: 1.5; stroke-linecap: square"/>
   </g>
   <g id="line2d_7">
    <path d="M 115.660456 180.002631 
L 119.447405 167.884089 
L 123.234354 155.765546 
L 127.021303 143.647008 
L 130.808254 131.528465 
L 134.595201 119.409922 
L 138.38215 107.291381 
L 142.1691 95.172839 
L 145.956049 83.054298 
L 149.742998 70.935756 
" clip-path="url(#p6f0f5dea3f)" style="fill: none; stroke: #56b4e9; stroke-width: 1.5; stroke-linecap: square"/>
   </g>
   <g id="line2d_8">
    <path d="M 70.923124 109.606221 
L 73.396094 101.147752 
L 75.869068 92.689283 
L 78.342037 84.230814 
L 80.815007 75.772346 
L 83.287979 67.313875 
L 85.76095 58.855405 
L 88.23392 50.396937 
L 90.70689 41.938468 
L 93.179861 33.48 
" clip-path="url(#p6f0f5dea3f)" style="fill: none; stroke: #56b4e9; stroke-width: 1.5; stroke-linecap: square"/>
   </g>
   <g id="line2d_9">
    <path d="M 91.965494 154.246178 
L 102.388281 157.194881 
L 112.811069 160.143584 
L 123.233857 163.092292 
L 133.656645 166.040995 
L 144.079439 168.989698 
L 154.502226 171.938405 
L 164.925016 174.887108 
L 175.347799 177.835811 
L 185.77059 180.784514 
" clip-path="url(#p6f0f5dea3f)" style="fill: none; stroke: #56b4e9; stroke-width: 1.5; stroke-linecap: square"/>
   </g>
   <g id="line2d_10">
    <path d="M 114.633774 114.724309 
L 114.726588 109.336577 
L 114.819401 103.948845 
L 114.912214 98.561114 
L 115.005027 93.173382 
L 115.09784 87.785646 
L 115.190654 82.397914 
L 115.283466 77.010183 
L 115.37628 71.622451 
L 115.469093 66.234719 
" clip-path="url(#p6f0f5dea3f)" style="fill: none; stroke: #56b4e9; stroke-width: 1.5; stroke-linecap: square"/>
   </g>
   <g id="line2d_11">
    <path d="M 182.737503 158.758209 
L 179.071445 149.000157 
L 175.405394 139.242106 
L 171.739336 129.484059 
L 168.073278 119.726008 
L 164.407223 109.967956 
L 160.741165 100.209906 
L 157.075111 90.451856 
L 153.409053 80.693807 
L 149.742998 70.935756 
" clip-path="url(#p6f0f5dea3f)" style="fill: none; stroke: #56b4e9; stroke-width: 1.5; stroke-linecap: square"/>
   </g>
   <g id="patch_3">
    <path d="M 27 192.24 
L 27 25.92 
" style="fill: none; stroke: #000000; stroke-width: 0.8; stroke-linejoin: miter; stroke-linecap: square"/>
   </g>
   <g id="patch_4">
    <path d="M 194.4 192.24 
L 194.4 25.92 
" style="fill: none; stroke: #000000; stroke-width: 0.8; stroke-linejoin: miter; stroke-linecap: square"/>
   </g>
   <g id="patch_5">
    <path d="M 27 192.24 
L 194.4 192.24 
" style="fill: none; stroke: #000000; stroke-width: 0.8; stroke-linejoin: miter; stroke-linecap: square"/>
   </g>
   <g id="patch_6">
    <path d="M 27 25.92 
L 194.4 25.92 
" style="fill: none; stroke: #000000; stroke-width: 0.8; stroke-linejoin: miter; stroke-linecap: square"/>
   </g>
   <g id="text_3">
    <!-- Euclidean space -->
    <g transform="translate(29.50625 19.92) scale(0.2 -0.2)">
     <defs>
      <path id="DejaVuSans-45" d="M 628 4666 
L 3578 4666 
L 3578 4134 
L 1259 4134 
L 1259 2753 
L 3481 2753 
L 3481 2222 
L 1259 2222 
L 1259 531 
L 3634 531 
L 3634 0 
L 628 0 
L 628 4666 
z
" transform="scale(0.015625)"/>
      <path id="DejaVuSans-75" d="M 544 1381 
L 544 3500 
L 1119 3500 
L 1119 1403 
Q 1119 906 1312 657 
Q 1506 409 1894 409 
Q 2359 409 2629 706 
Q 2900 1003 2900 1516 
L 2900 3500 
L 3475 3500 
L 3475 0 
L 2900 0 
L 2900 538 
Q 2691 219 2414 64 
Q 2138 -91 1772 -91 
Q 1169 -91 856 284 
Q 544 659 544 1381 
z
M 1991 3584 
L 1991 3584 
z
" transform="scale(0.015625)"/>
      <path id="DejaVuSans-63" d="M 3122 3366 
L 3122 2828 
Q 2878 2963 2633 3030 
Q 2388 3097 2138 3097 
Q 1578 3097 1268 2742 
Q 959 2388 959 1747 
Q 959 1106 1268 751 
Q 1578 397 2138 397 
Q 2388 397 2633 464 
Q 2878 531 3122 666 
L 3122 134 
Q 2881 22 2623 -34 
Q 2366 -91 2075 -91 
Q 1284 -91 818 406 
Q 353 903 353 1747 
Q 353 2603 823 3093 
Q 1294 3584 2113 3584 
Q 2378 3584 2631 3529 
Q 2884 3475 3122 3366 
z
" transform="scale(0.015625)"/>
      <path id="DejaVuSans-6c" d="M 603 4863 
L 1178 4863 
L 1178 0 
L 603 0 
L 603 4863 
z
" transform="scale(0.015625)"/>
      <path id="DejaVuSans-69" d="M 603 3500 
L 1178 3500 
L 1178 0 
L 603 0 
L 603 3500 
z
M 603 4863 
L 1178 4863 
L 1178 4134 
L 603 4134 
L 603 4863 
z
" transform="scale(0.015625)"/>
      <path id="DejaVuSans-64" d="M 2906 2969 
L 2906 4863 
L 3481 4863 
L 3481 0 
L 2906 0 
L 2906 525 
Q 2725 213 2448 61 
Q 2172 -91 1784 -91 
Q 1150 -91 751 415 
Q 353 922 353 1747 
Q 353 2572 751 3078 
Q 1150 3584 1784 3584 
Q 2172 3584 2448 3432 
Q 2725 3281 2906 2969 
z
M 947 1747 
Q 947 1113 1208 752 
Q 1469 391 1925 391 
Q 2381 391 2643 752 
Q 2906 1113 2906 1747 
Q 2906 2381 2643 2742 
Q 2381 3103 1925 3103 
Q 1469 3103 1208 2742 
Q 947 2381 947 1747 
z
" transform="scale(0.015625)"/>
      <path id="DejaVuSans-73" d="M 2834 3397 
L 2834 2853 
Q 2591 2978 2328 3040 
Q 2066 3103 1784 3103 
Q 1356 3103 1142 2972 
Q 928 2841 928 2578 
Q 928 2378 1081 2264 
Q 1234 2150 1697 2047 
L 1894 2003 
Q 2506 1872 2764 1633 
Q 3022 1394 3022 966 
Q 3022 478 2636 193 
Q 2250 -91 1575 -91 
Q 1294 -91 989 -36 
Q 684 19 347 128 
L 347 722 
Q 666 556 975 473 
Q 1284 391 1588 391 
Q 1994 391 2212 530 
Q 2431 669 2431 922 
Q 2431 1156 2273 1281 
Q 2116 1406 1581 1522 
L 1381 1569 
Q 847 1681 609 1914 
Q 372 2147 372 2553 
Q 372 3047 722 3315 
Q 1072 3584 1716 3584 
Q 2034 3584 2315 3537 
Q 2597 3491 2834 3397 
z
" transform="scale(0.015625)"/>
      <path id="DejaVuSans-70" d="M 1159 525 
L 1159 -1331 
L 581 -1331 
L 581 3500 
L 1159 3500 
L 1159 2969 
Q 1341 3281 1617 3432 
Q 1894 3584 2278 3584 
Q 2916 3584 3314 3078 
Q 3713 2572 3713 1747 
Q 3713 922 3314 415 
Q 2916 -91 2278 -91 
Q 1894 -91 1617 61 
Q 1341 213 1159 525 
z
M 3116 1747 
Q 3116 2381 2855 2742 
Q 2594 3103 2138 3103 
Q 1681 3103 1420 2742 
Q 1159 2381 1159 1747 
Q 1159 1113 1420 752 
Q 1681 391 2138 391 
Q 2594 391 2855 752 
Q 3116 1113 3116 1747 
z
" transform="scale(0.015625)"/>
     </defs>
     <use xlink:href="#DejaVuSans-45"/>
     <use xlink:href="#DejaVuSans-75" x="63.183594"/>
     <use xlink:href="#DejaVuSans-63" x="126.5625"/>
     <use xlink:href="#DejaVuSans-6c" x="181.542969"/>
     <use xlink:href="#DejaVuSans-69" x="209.326172"/>
     <use xlink:href="#DejaVuSans-64" x="237.109375"/>
     <use xlink:href="#DejaVuSans-65" x="300.585938"/>
     <use xlink:href="#DejaVuSans-61" x="362.109375"/>
     <use xlink:href="#DejaVuSans-6e" x="423.388672"/>
     <use xlink:href="#DejaVuSans-20" x="486.767578"/>
     <use xlink:href="#DejaVuSans-73" x="518.554688"/>
     <use xlink:href="#DejaVuSans-70" x="570.654297"/>
     <use xlink:href="#DejaVuSans-61" x="634.130859"/>
     <use xlink:href="#DejaVuSans-63" x="695.410156"/>
     <use xlink:href="#DejaVuSans-65" x="750.390625"/>
    </g>
   </g>
  </g>
 </g>
 <defs>
  <clipPath id="p6f0f5dea3f">
   <rect x="27" y="25.92" width="167.4" height="166.32"/>
  </clipPath>
 </defs>
</svg>
